<?xml version="1.0" encoding="UTF-8" standalone="no"?>
<svg
   xmlns:dc="http://purl.org/dc/elements/1.1/"
   xmlns:cc="http://creativecommons.org/ns#"
   xmlns:rdf="http://www.w3.org/1999/02/22-rdf-syntax-ns#"
   xmlns:svg="http://www.w3.org/2000/svg"
   xmlns="http://www.w3.org/2000/svg"
   xmlns:sodipodi="http://sodipodi.sourceforge.net/DTD/sodipodi-0.dtd"
   xmlns:inkscape="http://www.inkscape.org/namespaces/inkscape"
   version="1.0"
   width="88.868347mm"
   height="56.082447mm"
   id="svg114"
   sodipodi:docname="p_rrr_inequality.svg"
   inkscape:version="0.92.2 (5c3e80d, 2017-08-06)">
  <metadata
     id="metadata118">
    <rdf:RDF>
      <cc:Work
         rdf:about="">
        <dc:format>image/svg+xml</dc:format>
        <dc:type
           rdf:resource="http://purl.org/dc/dcmitype/StillImage" />
        <dc:title />
      </cc:Work>
    </rdf:RDF>
  </metadata>
  <sodipodi:namedview
     pagecolor="#ffffff"
     bordercolor="#666666"
     borderopacity="1"
     objecttolerance="10"
     gridtolerance="10"
     guidetolerance="10"
     inkscape:pageopacity="0"
     inkscape:pageshadow="2"
     inkscape:window-width="1845"
     inkscape:window-height="1053"
     id="namedview116"
     showgrid="false"
     inkscape:zoom="2.4894133"
     inkscape:cx="134.82597"
     inkscape:cy="73.009846"
     inkscape:window-x="66"
     inkscape:window-y="-9"
     inkscape:window-maximized="1"
     inkscape:current-layer="svg114"
     fit-margin-top="0"
     fit-margin-left="0"
     fit-margin-right="0"
     fit-margin-bottom="0" />
  <defs
     id="defs6">
    <marker
       inkscape:stockid="ExperimentalArrow"
       orient="auto-start-reverse"
       refY="3.0"
       refX="5.0"
       id="ExperimentalArrow"
       inkscape:isstock="true">
      <path
         id="path1143"
         d="m 10,3 -10,3 0,-6 z"
         style="fill:context-stroke;stroke:#4f81bd;stroke-opacity:1" />
    </marker>
    <marker
       inkscape:stockid="Arrow2Mend"
       orient="auto"
       refY="0.0"
       refX="0.0"
       id="Arrow2Mend"
       style="overflow:visible;"
       inkscape:isstock="true">
      <path
         id="path917"
         style="fill-rule:evenodd;stroke-width:0.625;stroke-linejoin:round;stroke:#4f81bd;stroke-opacity:1;fill:#4f81bd;fill-opacity:1"
         d="M 8.7185878,4.0337352 L -2.2072895,0.016013256 L 8.7185884,-4.0017078 C 6.9730900,-1.6296469 6.9831476,1.6157441 8.7185878,4.0337352 z "
         transform="scale(0.6) rotate(180) translate(0,0)" />
    </marker>
    <marker
       inkscape:stockid="Arrow2Mstart"
       orient="auto"
       refY="0.0"
       refX="0.0"
       id="Arrow2Mstart"
       style="overflow:visible"
       inkscape:isstock="true">
      <path
         id="path914"
         style="fill-rule:evenodd;stroke-width:0.625;stroke-linejoin:round;stroke:#4f81bd;stroke-opacity:1;fill:#4f81bd;fill-opacity:1"
         d="M 8.7185878,4.0337352 L -2.2072895,0.016013256 L 8.7185884,-4.0017078 C 6.9730900,-1.6296469 6.9831476,1.6157441 8.7185878,4.0337352 z "
         transform="scale(0.6) translate(0,0)" />
    </marker>
    <marker
       inkscape:stockid="Arrow1Sstart"
       orient="auto"
       refY="0.0"
       refX="0.0"
       id="Arrow1Sstart"
       style="overflow:visible"
       inkscape:isstock="true">
      <path
         id="path902"
         d="M 0.0,0.0 L 5.0,-5.0 L -12.5,0.0 L 5.0,5.0 L 0.0,0.0 z "
         style="fill-rule:evenodd;stroke:#4f81bd;stroke-width:1pt;stroke-opacity:1;fill:#4f81bd;fill-opacity:1"
         transform="scale(0.2) translate(6,0)" />
    </marker>
    <marker
       inkscape:stockid="Arrow2Lstart"
       orient="auto"
       refY="0.0"
       refX="0.0"
       id="Arrow2Lstart"
       style="overflow:visible"
       inkscape:isstock="true">
      <path
         id="path908"
         style="fill-rule:evenodd;stroke-width:0.625;stroke-linejoin:round;stroke:#4f81bd;stroke-opacity:1;fill:#4f81bd;fill-opacity:1"
         d="M 8.7185878,4.0337352 L -2.2072895,0.016013256 L 8.7185884,-4.0017078 C 6.9730900,-1.6296469 6.9831476,1.6157441 8.7185878,4.0337352 z "
         transform="scale(1.1) translate(1,0)" />
    </marker>
    <marker
       inkscape:stockid="Arrow1Mstart"
       orient="auto"
       refY="0.0"
       refX="0.0"
       id="Arrow1Mstart"
       style="overflow:visible"
       inkscape:isstock="true">
      <path
         id="path896"
         d="M 0.0,0.0 L 5.0,-5.0 L -12.5,0.0 L 5.0,5.0 L 0.0,0.0 z "
         style="fill-rule:evenodd;stroke:#4f81bd;stroke-width:1pt;stroke-opacity:1;fill:#4f81bd;fill-opacity:1"
         transform="scale(0.4) translate(10,0)" />
    </marker>
    <clipPath
       clipPathUnits="userSpaceOnUse"
       id="clipEmfPath1">
      <path
         d="M 0.79951545,1.5990309 H 351.62689 V 228.0218 H 0.79951545 Z"
         id="path2"
         inkscape:connector-curvature="0" />
    </clipPath>
    <pattern
       id="EMFhbasepattern"
       patternUnits="userSpaceOnUse"
       width="6"
       height="6"
       x="0"
       y="0" />
  </defs>
  <path
     style="fill:#4f81bd;fill-opacity:1;fill-rule:nonzero;stroke:#4f81bd;stroke-width:0.03997577px;stroke-linecap:butt;stroke-linejoin:round;stroke-miterlimit:4;stroke-dasharray:none;stroke-opacity:1"
     d="m 177.74627,58.96003 0.04,3.837674 h -0.95942 l -0.04,-3.837674 z m 0.04,6.71593 v 3.837674 h -0.95942 V 65.67596 Z m 0,6.715929 v 3.837675 h -0.95942 v -3.837675 z m 0,6.715931 v 3.837674 h -0.95942 V 79.10782 Z m 0,6.71593 v 3.837677 h -0.95942 V 85.82375 Z m 0,6.715927 v 3.83768 h -0.95942 v -3.83768 z m 0.04,6.71593 v 3.837683 h -0.95942 v -3.837683 z m 0,6.715933 v 3.83768 h -0.95942 v -3.83768 z m 0,6.71593 v 3.83768 h -0.95942 v -3.83768 z m 0,6.71593 v 3.83768 h -0.95942 v -3.83768 z m 0,6.71593 v 3.83768 h -0.95942 v -3.83768 z m 0,6.71593 0.04,3.83768 h -0.95942 l -0.04,-3.83768 z m 0.04,6.71593 v 3.83767 h -0.95942 v -3.83767 z m 0,6.71593 v 3.83767 h -0.95942 v -3.83767 z m 0,6.71593 v 3.83767 h -0.95942 v -3.83767 z m 0,6.71592 v 3.83767 h -0.95942 v -3.83767 z m 0,6.71593 0.04,3.83767 h -0.95942 l -0.04,-3.83767 z m 0.04,6.71593 v 3.83767 h -0.95942 v -3.83767 z m 0,6.71593 v 3.83767 h -0.95942 v -3.83767 z m 0,6.71593 v 3.83767 h -0.95942 v -3.83767 z m 0,6.71593 v 3.83767 h -0.95942 v -3.83767 z m 0,6.71593 v 3.83767 h -0.95942 v -3.83767 z m 0.04,6.71593 v 3.83767 h -0.95941 v -3.83767 z"
     id="path52-2"
     inkscape:connector-curvature="0" />
  <path
     style="fill:#000000;fill-opacity:1;fill-rule:nonzero;stroke:#000000;stroke-width:0.03997577px;stroke-linecap:butt;stroke-linejoin:round;stroke-miterlimit:4;stroke-dasharray:none;stroke-opacity:1"
     d="M 20.231678,165.57327 H 310.97547 v 1.3192 H 20.231678 Z m 283.068442,-4.59722 8.99455,5.23683 -8.99455,5.2768 c -0.3198,0.15991 -0.71956,0.04 -0.91944,-0.23985 -0.19988,-0.31981 -0.0799,-0.75954 0.23985,-0.91944 l 7.99516,-4.67717 v 1.1593 l -7.99516,-4.67717 c -0.3198,-0.1599 -0.43973,-0.59963 -0.23985,-0.91944 0.19988,-0.31981 0.59964,-0.39976 0.91944,-0.23986 z"
     id="path8"
     inkscape:connector-curvature="0" />
  <path
     style="fill:#000000;fill-opacity:1;fill-rule:nonzero;stroke:#000000;stroke-width:0.03997577px;stroke-linecap:butt;stroke-linejoin:round;stroke-miterlimit:4;stroke-dasharray:none;stroke-opacity:1"
     clip-path="url(#clipEmfPath1)"
     d="M 23.945488,180.25076 V 15.310721 H 22.626287 V 180.25076 Z M 28.542701,22.986069 23.265899,13.99152 18.029073,22.986069 c -0.159903,0.319806 -0.07995,0.719564 0.239855,0.919443 0.319806,0.199879 0.75954,0.07995 0.919443,-0.239855 l 4.677165,-7.995154 h -1.159297 l 4.677165,7.995154 c 0.159903,0.319806 0.599637,0.439734 0.919443,0.239855 0.27983,-0.199879 0.399757,-0.599637 0.239854,-0.919443 z"
     id="path10"
     inkscape:connector-curvature="0"
     transform="translate(-3.0342211,-13.438239)" />
  <g
     clip-path="url(#clipEmfPath1)"
     id="g18"
     transform="matrix(0.65857033,0,0,0.65857033,6.6455728,-3.5816297)">
    <text
       xml:space="preserve"
       style="font-style:italic;font-variant:normal;font-weight:400;font-size:29px;line-height:125%;font-family:'Times New Roman';text-align:start;letter-spacing:0px;word-spacing:0px;text-anchor:start;fill:#000000;fill-opacity:1;stroke:none"
       transform="translate(32.679194,26.25318)"
       x="0"
       y="0"
       id="text16"><tspan
         sodipodi:role="line"
         x="0"
         y="0"
         id="tspan14"
         style="font-style:normal"><tspan
           dx="0 0"
           dy="0 0"
           style="font-style:normal;font-variant:normal;font-weight:400;font-size:29px;font-family:'Times New Roman';fill:#000000"
           id="tspan12">$a$</tspan></tspan></text>
  </g>
  <g
     clip-path="url(#clipEmfPath1)"
     id="g26"
     transform="matrix(0.65857033,0,0,0.65857033,86.659815,52.53138)">
    <text
       xml:space="preserve"
       style="font-style:italic;font-variant:normal;font-weight:400;font-size:29.1875px;line-height:125%;font-family:'Times New Roman';text-align:start;letter-spacing:0px;word-spacing:0px;text-anchor:start;fill:#000000;fill-opacity:1;stroke:none"
       transform="translate(300.9536,204.86493)"
       x="0"
       y="0"
       id="text24"><tspan
         sodipodi:role="line"
         x="0"
         y="0"
         id="tspan22"
         style="font-style:normal"><tspan
           style="font-style:normal;font-variant:normal;font-weight:400;font-size:29.1875px;font-family:'Times New Roman';fill:#000000"
           id="tspan20"
           dy="0 0"
           dx="0 0">$x$</tspan></tspan></text>
  </g>
  <g
     clip-path="url(#clipEmfPath1)"
     id="g50"
     transform="matrix(0.65857033,0,0,0.65857033,50.968361,49.318888)">
    <text
       xml:space="preserve"
       style="font-style:italic;font-variant:normal;font-weight:400;font-size:28.375px;line-height:125%;font-family:'Times New Roman';text-align:start;letter-spacing:0px;word-spacing:0px;text-anchor:start;fill:#000000;fill-opacity:1;stroke:none"
       x="90.076195"
       y="207.21156"
       id="text48"><tspan
         sodipodi:role="line"
         x="90.076195"
         y="207.21156"
         id="tspan46"
         style="font-style:normal"><tspan
           dx="0"
           dy="0"
           style="font-style:normal;font-variant:normal;font-weight:400;font-size:28.375px;font-family:'Times New Roman';fill:#000000"
           id="tspan44">$x_{min}$</tspan></tspan></text>
  </g>
  <path
     style="fill:#4f81bd;fill-opacity:1;fill-rule:nonzero;stroke:#4f81bd;stroke-width:0.03997577px;stroke-linecap:butt;stroke-linejoin:round;stroke-miterlimit:4;stroke-dasharray:none;stroke-opacity:1"
     d="m 107.53877,59.237715 0.04,3.837674 h -0.95942 l -0.04,-3.837674 z m 0.04,6.71593 v 3.837674 h -0.95942 v -3.837674 z m 0,6.715929 v 3.837675 h -0.95942 v -3.837675 z m 0,6.71593 v 3.837674 h -0.95942 v -3.837674 z m 0,6.71593 v 3.837677 h -0.95942 v -3.837677 z m 0,6.715927 v 3.83768 h -0.95942 v -3.83768 z m 0.04,6.71593 v 3.837679 h -0.95942 v -3.837679 z m 0,6.715929 v 3.83768 h -0.95942 v -3.83768 z m 0,6.71593 v 3.83768 h -0.95942 v -3.83768 z m 0,6.71593 v 3.83768 h -0.95942 v -3.83768 z m 0,6.71593 v 3.83768 h -0.95942 v -3.83768 z m 0,6.71593 0.04,3.83768 h -0.95942 l -0.04,-3.83768 z m 0.04,6.71593 v 3.83767 h -0.95942 v -3.83767 z m 0,6.71593 v 3.83767 h -0.95942 v -3.83767 z m 0,6.71593 v 3.83767 h -0.95942 v -3.83767 z m 0,6.71593 v 3.83767 h -0.95942 v -3.83767 z m 0,6.71593 0.04,3.83767 h -0.95942 l -0.04,-3.83767 z m 0.04,6.71593 v 3.83767 h -0.95942 v -3.83767 z m 0,6.71593 v 3.83767 h -0.95942 v -3.83767 z m 0,6.71593 v 3.83767 h -0.95942 v -3.83767 z m 0,6.71593 v 3.83767 h -0.95942 v -3.83767 z m 0,6.71593 v 3.83767 h -0.95942 v -3.83767 z m 0.04,6.71593 v 3.83767 h -0.95941 v -3.83767 z"
     id="path52"
     inkscape:connector-curvature="0" />
  <g
     clip-path="url(#clipEmfPath1)"
     id="g68"
     transform="matrix(0.65857033,0,0,0.65857033,63.727049,1.3502323)">
    <text
       xml:space="preserve"
       style="font-style:italic;font-variant:normal;font-weight:400;font-size:28.375px;line-height:125%;font-family:'Times New Roman';text-align:start;letter-spacing:0px;word-spacing:0px;text-anchor:start;fill:#000000;fill-opacity:1;stroke:none"
       x="225.64182"
       y="61.824112"
       id="text66"><tspan
         sodipodi:role="line"
         x="225.64182"
         y="61.824112"
         id="tspan64"
         style="font-style:normal;font-variant:normal;font-weight:normal;font-stretch:normal;font-family:'Times New Roman';-inkscape-font-specification:'Times New Roman, '"><tspan
           dx="0 0 -0.182606"
           dy="0 0 0"
           style="font-style:normal;font-variant:normal;font-weight:normal;font-stretch:normal;font-size:28.375px;font-family:'Times New Roman';-inkscape-font-specification:'Times New Roman, ';fill:#000000"
           id="tspan60">$x &gt; x_{min}$</tspan></tspan></text>
  </g>
  <path
     style="fill:#000000;fill-opacity:1;fill-rule:evenodd;stroke:none"
     d="m 173.88978,167.00294 c 0,-1.95881 1.63901,-3.59782 3.59782,-3.59782 1.99879,0 3.59782,1.63901 3.59782,3.59782 0,1.99879 -1.59903,3.59782 -3.59782,3.59782 -1.95881,0 -3.59782,-1.59903 -3.59782,-3.59782 z"
     id="path70"
     inkscape:connector-curvature="0" />
  <path
     style="fill:none;stroke:#000000;stroke-width:0.95941854px;stroke-linecap:butt;stroke-linejoin:round;stroke-miterlimit:4;stroke-dasharray:none;stroke-opacity:1"
     d="m 173.88978,167.00294 c 0,-1.95881 1.63901,-3.59782 3.59782,-3.59782 1.99879,0 3.59782,1.63901 3.59782,3.59782 0,1.99879 -1.59903,3.59782 -3.59782,3.59782 -1.95881,0 -3.59782,-1.59903 -3.59782,-3.59782"
     id="path72"
     inkscape:connector-curvature="0" />
  <text
     xml:space="preserve"
     style="font-style:italic;font-variant:normal;font-weight:normal;font-stretch:normal;font-size:21.25px;line-height:125%;font-family:cmr10;-inkscape-font-specification:'cmr10 Italic';text-align:start;letter-spacing:0px;word-spacing:0px;text-anchor:start;fill:#000000;fill-opacity:1;stroke:none"
     x="207.73483"
     y="15.94009"
     id="text78"><tspan
       sodipodi:role="line"
       x="207.73483"
       y="15.94009"
       id="tspan76"><tspan
         dx="0"
         dy="0"
         style="font-style:italic;font-variant:normal;font-weight:normal;font-stretch:normal;font-size:21.25px;font-family:cmr10;-inkscape-font-specification:'cmr10 Italic';fill:#000000"
         id="tspan74">inequality </tspan></tspan></text>
  <path
     style="fill:none;stroke:#000000;stroke-width:3.21590228;stroke-linecap:butt;stroke-linejoin:round;stroke-miterlimit:4;stroke-dasharray:none;stroke-opacity:1"
     clip-path="url(#clipEmfPath1)"
     d="M 121.20654,107.63477 3.1957122,107.76763"
     id="path82"
     inkscape:connector-curvature="0"
     transform="matrix(0.90142591,0,0,0.90142591,-2.7347374,-2.8449866)"
     sodipodi:nodetypes="cc" />
  <path
     style="fill:none;stroke:#000000;stroke-width:2.89889764;stroke-linecap:butt;stroke-linejoin:round;stroke-miterlimit:4;stroke-dasharray:none;stroke-opacity:1"
     d="M 168.0818,166.77254 H 293.82586"
     id="path84"
     inkscape:connector-curvature="0" />
  <g
     clip-path="url(#clipEmfPath1)"
     id="g92"
     transform="matrix(0.65857033,0,0,0.65857033,4.6455728,23.10123)">
    <text
       xml:space="preserve"
       style="font-style:normal;font-variant:normal;font-weight:400;font-size:28.25px;line-height:125%;font-family:'Times New Roman';text-align:start;letter-spacing:0px;word-spacing:0px;text-anchor:start;fill:#000000;fill-opacity:1;stroke:none"
       transform="translate(33.316951,98.278899)"
       x="0"
       y="0"
       id="text90"><tspan
         sodipodi:role="line"
         x="0"
         y="0"
         id="tspan88"><tspan
           dx="0 0"
           dy="0 0"
           style="font-style:normal;font-variant:normal;font-weight:400;font-size:28.25px;font-family:'Times New Roman';fill:#000000"
           id="tspan86">$1$</tspan></tspan></text>
  </g>
  <path
     style="fill:none;stroke:#0989b1;stroke-width:2.07874012px;stroke-linecap:round;stroke-linejoin:round;stroke-miterlimit:4;stroke-dasharray:none;stroke-opacity:1"
     d="m 214.75379,95.415791 c 0,-6.39613 5.23682,-11.632952 11.63295,-11.632952 h 96.86129 c 6.39613,0 11.59298,5.236822 11.59298,11.632952 v 46.491819 c 0,6.39612 -5.19685,11.59297 -11.59298,11.59297 h -96.86129 c -6.39613,0 -11.63295,-5.19685 -11.63295,-11.59297 z"
     id="path96"
     inkscape:connector-curvature="0" />
  <text
     xml:space="preserve"
     style="font-style:italic;font-variant:normal;font-weight:normal;font-stretch:normal;font-size:21.25px;line-height:125%;font-family:cmr10;-inkscape-font-specification:'cmr10 Italic';text-align:start;letter-spacing:0px;word-spacing:0px;text-anchor:start;fill:#000000;fill-opacity:1;stroke:none"
     x="226.88525"
     y="112.56664"
     id="text102"><tspan
       sodipodi:role="line"
       x="226.88525"
       y="112.56664"
       id="tspan100"><tspan
         dx="0"
         dy="0"
         style="font-style:italic;font-variant:normal;font-weight:normal;font-stretch:normal;font-size:21.25px;font-family:cmr10;-inkscape-font-specification:'cmr10 Italic';fill:#000000"
         id="tspan98">Transition </tspan></tspan></text>
  <text
     xml:space="preserve"
     style="font-style:italic;font-variant:normal;font-weight:normal;font-stretch:normal;font-size:21.25px;line-height:125%;font-family:cmr10;-inkscape-font-specification:'cmr10 Italic';text-align:start;letter-spacing:0px;word-spacing:0px;text-anchor:start;fill:#000000;fill-opacity:1;stroke:none"
     x="251.19054"
     y="138.15114"
     id="text108"><tspan
       sodipodi:role="line"
       x="251.19054"
       y="138.15114"
       id="tspan106"><tspan
         dx="0"
         dy="0"
         style="font-style:italic;font-variant:normal;font-weight:normal;font-stretch:normal;font-size:21.25px;font-family:cmr10;-inkscape-font-specification:'cmr10 Italic';fill:#000000"
         id="tspan104">zone</tspan></tspan></text>
  <path
     style="fill:#0989b1;fill-opacity:1;fill-rule:nonzero;stroke:#0989b1;stroke-width:0.03505722px;stroke-linecap:butt;stroke-linejoin:round;stroke-miterlimit:4;stroke-dasharray:none;stroke-opacity:1"
     d="m 214.00557,119.33871 -33.98083,0.24632 c -0.58387,0.0221 -1.05915,-0.59979 -1.04541,-1.36018 -0.0171,-0.75922 0.46218,-1.33725 1.04605,-1.35935 l 33.98083,-0.24632 c 0.58477,0.0178 1.05916,0.59979 1.04542,1.36017 0.0171,0.75922 -0.46128,1.37721 -1.04606,1.35936 z m -28.2199,4.7874 -7.85209,-5.90167 7.80153,-5.97425 c 0.51438,-0.37941 1.13435,-0.16292 1.42525,0.46597 0.29178,0.66882 0.12618,1.51493 -0.35746,1.89318 l -6.2593,4.79607 0.009,-2.3599 6.28782,4.72111 c 0.50064,0.38099 0.67308,1.21431 0.38009,1.86528 -0.29301,0.65097 -0.93387,0.87519 -1.43452,0.49421 z"
     id="path110"
     inkscape:connector-curvature="0" />
  <path
     style="fill:none;stroke:#000000;stroke-width:2.89889764;stroke-linecap:butt;stroke-linejoin:miter;stroke-miterlimit:4;stroke-dasharray:none;stroke-opacity:1"
     d="m 106.52398,94.179781 c 30.5349,-0.28404 32.7272,71.882649 61.55782,72.592759"
     id="path925"
     inkscape:connector-curvature="0"
     sodipodi:nodetypes="cc" />
  <path
     style="fill:none;fill-opacity:1;stroke:#4f81bd;stroke-width:1.05108464;stroke-linecap:butt;stroke-linejoin:miter;stroke-miterlimit:4;stroke-dasharray:none;stroke-opacity:1;marker-start:url(#Arrow2Mstart);marker-mid:url(#ExperimentalArrow);marker-end:url(#Arrow2Mend)"
     d="m 109.49643,80.207199 h 65.44439"
     id="path888"
     inkscape:connector-curvature="0" />
  <rect
     style="opacity:1;fill:#ffffff;fill-opacity:1;stroke:none;stroke-width:1.03999996;stroke-miterlimit:4;stroke-dasharray:none;stroke-opacity:1"
     id="rect1164"
     width="18.076544"
     height="26.713123"
     x="134.33499"
     y="64.314491" />
  <text
     xml:space="preserve"
     style="font-style:normal;font-weight:normal;font-size:17.33333397px;line-height:0;font-family:sans-serif;letter-spacing:0px;word-spacing:0px;fill:#000000;fill-opacity:1;stroke:none"
     x="134.34349"
     y="87.831009"
     id="text884"><tspan
       sodipodi:role="line"
       id="tspan882"
       x="134.34349"
       y="87.831009">$\Delta$</tspan></text>
  <path
     style="fill:#000000;fill-opacity:1;fill-rule:evenodd;stroke:none"
     d="m 103.60154,166.33572 c 0,-1.95881 1.63901,-3.59782 3.59782,-3.59782 1.99879,0 3.59782,1.63901 3.59782,3.59782 0,1.99879 -1.59903,3.59782 -3.59782,3.59782 -1.95881,0 -3.59782,-1.59903 -3.59782,-3.59782 z"
     id="path70-6"
     inkscape:connector-curvature="0" />
  <path
     style="fill:none;stroke:#000000;stroke-width:0.95941854px;stroke-linecap:butt;stroke-linejoin:round;stroke-miterlimit:4;stroke-dasharray:none;stroke-opacity:1"
     d="m 103.60154,166.33572 c 0,-1.95881 1.63901,-3.59782 3.59782,-3.59782 1.99879,0 3.59782,1.63901 3.59782,3.59782 0,1.99879 -1.59903,3.59782 -3.59782,3.59782 -1.95881,0 -3.59782,-1.59903 -3.59782,-3.59782"
     id="path72-4"
     inkscape:connector-curvature="0" />
</svg>
