<?xml version="1.0" encoding="UTF-8" standalone="no"?>
<svg
   xmlns:dc="http://purl.org/dc/elements/1.1/"
   xmlns:cc="http://creativecommons.org/ns#"
   xmlns:rdf="http://www.w3.org/1999/02/22-rdf-syntax-ns#"
   xmlns:svg="http://www.w3.org/2000/svg"
   xmlns="http://www.w3.org/2000/svg"
   xmlns:sodipodi="http://sodipodi.sourceforge.net/DTD/sodipodi-0.dtd"
   xmlns:inkscape="http://www.inkscape.org/namespaces/inkscape"
   version="1.0"
   width="63.932213mm"
   height="52.083412mm"
   id="svg189"
   sodipodi:docname="faimm1.svg"
   inkscape:version="0.92.2 (5c3e80d, 2017-08-06)">
  <metadata
     id="metadata193">
    <rdf:RDF>
      <cc:Work
         rdf:about="">
        <dc:format>image/svg+xml</dc:format>
        <dc:type
           rdf:resource="http://purl.org/dc/dcmitype/StillImage" />
        <dc:title />
      </cc:Work>
    </rdf:RDF>
  </metadata>
  <sodipodi:namedview
     pagecolor="#ffffff"
     bordercolor="#666666"
     borderopacity="1"
     objecttolerance="10"
     gridtolerance="10"
     guidetolerance="10"
     inkscape:pageopacity="0"
     inkscape:pageshadow="2"
     inkscape:window-width="1844"
     inkscape:window-height="1053"
     id="namedview191"
     showgrid="false"
     inkscape:zoom="2.3075265"
     inkscape:cx="-41.650495"
     inkscape:cy="74.65996"
     inkscape:window-x="67"
     inkscape:window-y="-9"
     inkscape:window-maximized="1"
     inkscape:current-layer="svg189"
     fit-margin-top="0"
     fit-margin-left="0"
     fit-margin-right="0"
     fit-margin-bottom="0"
     showguides="false" />
  <defs
     id="defs15">
    <clipPath
       clipPathUnits="userSpaceOnUse"
       id="clipEmfPath1">
      <path
         d="M -0.63961236,0.47970927 V 205.31557 H 251.04785 V 0.47970927 Z M 21.427014,144.23259 l 0.319806,0.1599 0.479709,0.47971 0.319807,0.1599 0.639612,0.63961 0.319806,0.15991 0.479709,0.47971 0.319807,0.1599 0.639612,0.63961 0.319806,0.15991 0.479709,0.4797 0.319807,0.15991 0.639612,0.63961 0.319806,0.1599 0.479709,0.47971 0.319806,0.15991 0.639613,0.63961 0.319806,0.1599 0.479709,0.47971 0.319806,0.1599 0.639613,0.63962 0.319806,0.1599 0.479709,0.47971 0.319806,0.1599 0.639613,0.63961 0.319806,0.15991 0.479709,0.47971 0.319806,0.1599 0.639613,0.63961 0.319806,0.1599 0.479709,0.47971 0.319806,0.15991 0.639613,0.63961 0.319806,0.1599 0.479709,0.47971 0.319806,0.1599 0.639613,0.63962 0.319806,0.1599 0.479709,0.47971 0.319806,0.1599 0.639613,0.63961 0.319806,0.15991 0.639612,0.63961 0.319806,0.1599 0.47971,0.47971 0.319806,0.15991 0.639612,0.63961 0.319806,0.1599 0.47971,0.47971 0.319806,0.1599 0.639612,0.63962 0.319806,0.1599 0.47971,0.47971 0.319806,0.1599 0.639612,0.63961 0.319806,0.15991 0.47971,0.47971 0.319806,0.1599 0.639612,0.63961 0.319806,0.1599 0.47971,0.47971 0.319806,0.15991 0.639612,0.63961 0.319806,0.1599 0.47971,0.47971 0.319806,0.1599 0.639612,0.63962 0.319806,0.1599 0.47971,0.47971 0.319806,0.1599 0.639612,0.63961 0.319806,0.15991 0.47971,0.47971 0.319806,0.1599 0.639612,0.63961 0.319806,0.15991 0.47971,0.4797 0.319806,0.15991 0.639612,0.63961 0.319806,0.1599 0.47971,0.47971 0.319806,0.15991 0.639612,0.63961 0.319806,0.1599 0.639613,0.63961 0.319806,0.15991 0.479709,0.47971 0.319806,0.1599 0.639613,0.63961 0.319806,0.1599 0.479709,0.47971 0.319806,0.15991 0.639613,0.63961 0.319806,0.1599 0.479709,0.47971 0.319806,0.1599 0.639613,0.63962 0.319806,0.1599 0.159903,0.1599 134.158688,0.15991 v -0.15991 l -0.47971,-0.47971 -0.3198,-0.1599 -0.63961,-0.63961 -0.31981,-0.1599 -0.47971,-0.47971 -0.31981,-0.15991 -0.63961,-0.63961 -0.3198,-0.1599 -0.47971,-0.47971 -0.31981,-0.15991 -0.63961,-0.63961 -0.31981,-0.1599 -0.47971,-0.47971 -0.3198,-0.1599 -0.63962,-0.63962 -0.3198,-0.1599 -0.47971,-0.47971 -0.31981,-0.1599 -0.63961,-0.63961 -0.31981,-0.15991 -0.47971,-0.47971 -0.3198,-0.1599 -0.63961,-0.63961 -0.31981,-0.1599 -0.47971,-0.47971 -0.31981,-0.15991 -0.63961,-0.63961 -0.3198,-0.1599 -0.47971,-0.47971 -0.31981,-0.1599 -0.63961,-0.63962 -0.31981,-0.1599 -0.47971,-0.47971 -0.3198,-0.1599 -0.63962,-0.63961 -0.3198,-0.15991 -0.47971,-0.47971 -0.31981,-0.1599 -0.63961,-0.63961 -0.31981,-0.15991 -0.63961,-0.63961 -0.3198,-0.1599 -0.47971,-0.47971 -0.31981,-0.1599 -0.63961,-0.63962 -0.31981,-0.1599 -0.47971,-0.47971 -0.3198,-0.1599 -0.63962,-0.63961 -0.3198,-0.15991 -0.47971,-0.47971 -0.31981,-0.1599 -0.63961,-0.63961 -0.31981,-0.1599 -0.47971,-0.47971 -0.3198,-0.15991 -0.63961,-0.63961 -0.31981,-0.1599 -0.47971,-0.47971 -0.31981,-0.1599 -0.63961,-0.63962 -0.3198,-0.1599 -0.47971,-0.47971 -0.31981,-0.1599 -0.63961,-0.63961 -0.31981,-0.15991 -0.47971,-0.47971 -0.3198,-0.1599 -0.63962,-0.63961 -0.3198,-0.15991 -0.47971,-0.4797 -0.31981,-0.15991 -0.63961,-0.63961 -0.31981,-0.1599 -0.47971,-0.47971 -0.3198,-0.15991 -0.63961,-0.63961 -0.31981,-0.1599 -0.47971,-0.47971 -0.31981,-0.1599 -0.63961,-0.63962 -0.3198,-0.1599 -0.63962,-0.63961 -0.3198,-0.1599 -0.47971,-0.47971 -0.31981,-0.15991 -0.63961,-0.63961 -0.31981,-0.1599 -0.47971,-0.47971 -0.3198,-0.1599 -0.63961,-0.63962 -0.31981,-0.1599 -0.47971,-0.47971 -0.31981,-0.1599 -0.63961,-0.63961 -0.31981,-0.15991 -0.3198,-0.3198 z"
         id="path2"
         inkscape:connector-curvature="0" />
    </clipPath>
    <clipPath
       clipPathUnits="userSpaceOnUse"
       id="clipEmfPath2">
      <path
         d="M -0.63961236,0.47970927 H 251.04785 V 205.31557 H -0.63961236 Z"
         id="path5"
         inkscape:connector-curvature="0" />
    </clipPath>
    <clipPath
       clipPathUnits="userSpaceOnUse"
       id="clipEmfPath3">
      <path
         d="M -158.30406,-149.82919 M 109.21381,6.8758328 v 0 19.6951812 h 25.32651 V 6.8758328"
         id="path8"
         inkscape:connector-curvature="0" />
    </clipPath>
    <clipPath
       clipPathUnits="userSpaceOnUse"
       id="clipEmfPath4">
      <path
         d="m 109.21381,6.8758328 v 0 19.6951812 h 25.32651 V 6.8758328"
         id="path11"
         inkscape:connector-curvature="0" />
    </clipPath>
    <pattern
       id="EMFhbasepattern"
       patternUnits="userSpaceOnUse"
       width="6"
       height="6"
       x="0"
       y="0" />
  </defs>
  <path
     style="fill:#4f81bd;fill-opacity:1;fill-rule:evenodd;stroke:none"
     d="m 65.690188,177.77226 c 1.159297,-4.31738 5.736523,-6.83586 10.233797,-5.63658 4.477287,1.19927 7.175651,5.67656 6.016354,9.99394 -1.139309,4.29739 -5.716535,6.81587 -10.21381,5.61659 -4.477286,-1.19927 -7.175651,-5.67656 -6.036341,-9.97395 z"
     id="path17"
     inkscape:connector-curvature="0" />
  <path
     style="fill:#6a95dc;fill-opacity:1;stroke:#000000;stroke-width:0.9993943px;stroke-linecap:butt;stroke-linejoin:round;stroke-miterlimit:4;stroke-dasharray:none;stroke-opacity:1"
     d="m 65.690188,177.77226 c 1.159297,-4.31738 5.736523,-6.83586 10.233797,-5.63658 4.477287,1.19927 7.175651,5.67656 6.016354,9.99394 -1.139309,4.29739 -5.716535,6.81587 -10.21381,5.61659 -4.477286,-1.19927 -7.175651,-5.67656 -6.036341,-9.97395"
     id="path19"
     inkscape:connector-curvature="0" />
  <path
     style="fill:#4f81bd;fill-opacity:1;fill-rule:evenodd;stroke:none"
     d="m 166.649,177.75227 c 1.13931,-4.31738 5.75651,-6.83586 10.29376,-5.61659 4.51726,1.21926 7.2556,5.69654 6.11629,10.01393 -1.15929,4.29739 -5.7765,6.81587 -10.29376,5.5966 -4.53725,-1.21926 -7.27559,-5.69654 -6.11629,-9.99394 z"
     id="path21"
     inkscape:connector-curvature="0" />
  <path
     style="fill:#6a95dc;fill-opacity:1;stroke:#000000;stroke-width:0.9993943px;stroke-linecap:butt;stroke-linejoin:round;stroke-miterlimit:4;stroke-dasharray:none;stroke-opacity:1"
     d="m 166.649,177.75227 c 1.13931,-4.31738 5.75651,-6.83586 10.29376,-5.61659 4.51726,1.21926 7.2556,5.69654 6.11629,10.01393 -1.15929,4.29739 -5.7765,6.81587 -10.29376,5.5966 -4.53725,-1.21926 -7.27559,-5.69654 -6.11629,-9.99394"
     id="path23"
     inkscape:connector-curvature="0" />
  <path
     style="fill:#4f81bd;fill-opacity:1;fill-rule:evenodd;stroke:none"
     d="m 26.38401,151.58813 c 1.159297,-4.30739 5.766505,-6.81587 10.303755,-5.6066 4.527256,1.21926 7.265596,5.69654 6.116293,10.00393 -1.159297,4.30739 -5.766505,6.81587 -10.303755,5.60661 -4.527256,-1.21927 -7.265597,-5.69655 -6.116293,-10.00394 z"
     id="path25"
     inkscape:connector-curvature="0" />
  <path
     style="fill:#6a95dc;fill-opacity:1;stroke:#000000;stroke-width:0.9993943px;stroke-linecap:butt;stroke-linejoin:round;stroke-miterlimit:4;stroke-dasharray:none;stroke-opacity:1"
     d="m 26.38401,151.58813 c 1.159297,-4.30739 5.766505,-6.81587 10.303755,-5.6066 4.527256,1.21926 7.265596,5.69654 6.116293,10.00393 -1.159297,4.30739 -5.766505,6.81587 -10.303755,5.60661 -4.527256,-1.21927 -7.265597,-5.69655 -6.116293,-10.00394"
     id="path27"
     inkscape:connector-curvature="0" />
  <path
     style="fill:#79bddf;fill-opacity:1;fill-rule:evenodd;stroke:none"
     d="m 16.939733,143.11326 42.953968,35.17868 H 194.11236 l -42.93398,-35.17868 z"
     id="path33"
     inkscape:connector-curvature="0" />
  <path
     style="fill:none;stroke:#000000;stroke-width:0.95941854px;stroke-linecap:butt;stroke-linejoin:miter;stroke-miterlimit:8;stroke-dasharray:none;stroke-opacity:1"
     d="m 16.939733,143.11326 42.953968,35.17868 H 194.11236 l -42.93398,-35.17868 z"
     id="path35"
     inkscape:connector-curvature="0" />
  <g
     id="g1040-6-3-4"
     transform="matrix(-1.7996162,-0.45049416,0.7187282,-1.1279877,110.11946,418.55249)">
    <g
       id="g1079-9-9-9"
       transform="rotate(26.911147,-42.793134,160.24589)">
      <path
         inkscape:connector-curvature="0"
         style="fill:#4f81bd;fill-opacity:1;fill-rule:evenodd;stroke:none"
         d="m 98.411948,121.3839 c 1.069351,0.93943 0.359781,3.49788 -1.589037,5.69655 -1.948819,2.20866 -4.397335,3.22804 -5.466687,2.28861 -1.069352,-0.94942 -0.349788,-3.49788 1.599031,-5.70654 1.948819,-2.20866 4.397335,-3.22804 5.456693,-2.27862 z"
         id="path73-6-6-5" />
      <path
         inkscape:connector-curvature="0"
         style="fill:none;stroke:#000000;stroke-width:1.05977368px;stroke-linecap:butt;stroke-linejoin:round;stroke-miterlimit:10;stroke-dasharray:none;stroke-opacity:1"
         d="m 98.741748,121.41388 c 1.180051,1.03784 0.532265,3.71037 -1.452075,5.95016 -1.983917,2.25035 -4.551151,3.22312 -5.731203,2.18528 -1.180477,-1.0484 -0.521611,-3.70995 1.462306,-5.96029 1.983917,-2.25034 4.551151,-3.22312 5.720972,-2.17515"
         id="path75-5-7-6" />
      <path
         inkscape:connector-curvature="0"
         style="fill:#4f81bd;fill-opacity:1;fill-rule:evenodd;stroke:none;stroke-width:1.1094141"
         d="m 113.34458,134.3521 -7.31506,8.28574 -14.602831,-12.93821 7.315059,-8.28575 z"
         id="path77-9-1-8" />
      <path
         inkscape:connector-curvature="0"
         style="fill:#4f81bd;fill-opacity:1;fill-rule:evenodd;stroke:none;stroke-width:1.20914531"
         d="m 113.41924,134.26833 c 1.32225,1.15906 0.77347,3.93847 -1.22295,6.18828 -1.99581,2.26184 -4.66959,3.14547 -5.99184,1.98641 -1.31069,-1.17047 -0.76128,-3.93785 1.23452,-6.19968 1.98424,-2.25044 4.67019,-3.13345 5.98027,-1.97501 z"
         id="path79-5-8-2" />
      <path
         inkscape:connector-curvature="0"
         style="fill:none;stroke:#000000;stroke-width:1.01949513px;stroke-linecap:butt;stroke-linejoin:round;stroke-miterlimit:10;stroke-dasharray:none;stroke-opacity:1"
         d="M 106.44497,142.71917 91.269541,129.29526"
         id="path83-4-5-2" />
      <path
         inkscape:connector-curvature="0"
         style="fill:none;stroke:#000000;stroke-width:0.9993943px;stroke-linecap:butt;stroke-linejoin:round;stroke-miterlimit:10;stroke-dasharray:none;stroke-opacity:1"
         d="M 113.3429,134.32606 98.741748,121.41388"
         id="path85-1-3-3" />
      <path
         inkscape:connector-curvature="0"
         style="fill:none;stroke:#000000;stroke-width:1.05977368px;stroke-linecap:butt;stroke-linejoin:round;stroke-miterlimit:10;stroke-dasharray:none;stroke-opacity:1"
         d="m 113.3429,134.32606 c 1.18005,1.03784 0.53226,3.71037 -1.45208,5.95016 -1.98392,2.25035 -4.55115,3.22312 -5.7312,2.18528 -1.18048,-1.0484 -0.52161,-3.70995 1.4623,-5.96029 1.98392,-2.25034 4.55115,-3.22312 5.72098,-2.17515"
         id="path75-6-96-8-8" />
    </g>
  </g>
  <path
     style="fill:none;stroke:#000000;stroke-width:2.59107804px;stroke-linecap:butt;stroke-linejoin:round;stroke-miterlimit:10;stroke-dasharray:none;stroke-opacity:1"
     d="m 75.290714,106.68183 v 28.61094"
     id="path37"
     inkscape:connector-curvature="0" />
  <path
     style="fill:none;stroke:#000000;stroke-width:3.03815866px;stroke-linecap:butt;stroke-linejoin:round;stroke-miterlimit:10;stroke-dasharray:none;stroke-opacity:1"
     d="M 137.1069,76.353725 159.65324,61.003029"
     id="path39"
     inkscape:connector-curvature="0" />
  <path
     style="fill:none;stroke:#000000;stroke-width:2.83304405px;stroke-linecap:butt;stroke-linejoin:round;stroke-miterlimit:10;stroke-dasharray:none;stroke-opacity:1"
     d="M 73.62603,109.30017 102.95329,85.228902"
     id="path41"
     inkscape:connector-curvature="0" />
  <path
     style="fill:none;stroke:#000000;stroke-width:3.03815866px;stroke-linecap:butt;stroke-linejoin:round;stroke-miterlimit:10;stroke-dasharray:none;stroke-opacity:1"
     d="M 100.16929,86.42762 135.50787,75.55421"
     id="path57"
     inkscape:connector-curvature="0" />
  <path
     style="fill:#4f81bd;fill-opacity:1;fill-rule:evenodd;stroke:none"
     d="m 128.75197,73.595397 c 0.80951,-3.028165 4.23743,-4.727135 7.66535,-3.817686 3.41793,0.919442 5.53665,4.117504 4.72714,7.135675 -0.80951,3.018171 -4.23744,4.727135 -7.66536,3.807692 -3.41793,-0.919443 -5.53664,-4.10751 -4.72713,-7.125681 z"
     id="path87"
     inkscape:connector-curvature="0" />
  <path
     style="fill:none;stroke:#000000;stroke-width:0.9993943px;stroke-linecap:butt;stroke-linejoin:round;stroke-miterlimit:10;stroke-dasharray:none;stroke-opacity:1"
     d="m 128.75197,73.595397 c 0.80951,-3.028165 4.23743,-4.727135 7.66535,-3.817686 3.41793,0.919442 5.53665,4.117504 4.72714,7.135675 -0.80951,3.018171 -4.23744,4.727135 -7.66536,3.807692 -3.41793,-0.919443 -5.53664,-4.10751 -4.72713,-7.125681"
     id="path89"
     inkscape:connector-curvature="0" />
  <g
     id="g1040-6-3"
     transform="matrix(-1.7996162,-0.45049416,0.7187282,-1.1279877,170.59593,425.00999)">
    <g
       id="g1079-9-9"
       transform="rotate(26.911147,-42.793134,160.24589)">
      <path
         inkscape:connector-curvature="0"
         style="fill:#4f81bd;fill-opacity:1;fill-rule:evenodd;stroke:none"
         d="m 98.411948,121.3839 c 1.069351,0.93943 0.359781,3.49788 -1.589037,5.69655 -1.948819,2.20866 -4.397335,3.22804 -5.466687,2.28861 -1.069352,-0.94942 -0.349788,-3.49788 1.599031,-5.70654 1.948819,-2.20866 4.397335,-3.22804 5.456693,-2.27862 z"
         id="path73-6-6" />
      <path
         inkscape:connector-curvature="0"
         style="fill:none;stroke:#000000;stroke-width:1.05977368px;stroke-linecap:butt;stroke-linejoin:round;stroke-miterlimit:10;stroke-dasharray:none;stroke-opacity:1"
         d="m 98.741748,121.41388 c 1.180051,1.03784 0.532265,3.71037 -1.452075,5.95016 -1.983917,2.25035 -4.551151,3.22312 -5.731203,2.18528 -1.180477,-1.0484 -0.521611,-3.70995 1.462306,-5.96029 1.983917,-2.25034 4.551151,-3.22312 5.720972,-2.17515"
         id="path75-5-7" />
      <path
         inkscape:connector-curvature="0"
         style="fill:#4f81bd;fill-opacity:1;fill-rule:evenodd;stroke:none;stroke-width:1.1094141"
         d="m 113.34458,134.3521 -7.31506,8.28574 -14.602831,-12.93821 7.315059,-8.28575 z"
         id="path77-9-1" />
      <path
         inkscape:connector-curvature="0"
         style="fill:#4f81bd;fill-opacity:1;fill-rule:evenodd;stroke:none;stroke-width:1.20914531"
         d="m 113.41924,134.26833 c 1.32225,1.15906 0.77347,3.93847 -1.22295,6.18828 -1.99581,2.26184 -4.66959,3.14547 -5.99184,1.98641 -1.31069,-1.17047 -0.76128,-3.93785 1.23452,-6.19968 1.98424,-2.25044 4.67019,-3.13345 5.98027,-1.97501 z"
         id="path79-5-8" />
      <path
         inkscape:connector-curvature="0"
         style="fill:none;stroke:#000000;stroke-width:1.01949513px;stroke-linecap:butt;stroke-linejoin:round;stroke-miterlimit:10;stroke-dasharray:none;stroke-opacity:1"
         d="M 106.44497,142.71917 91.269541,129.29526"
         id="path83-4-5" />
      <path
         inkscape:connector-curvature="0"
         style="fill:none;stroke:#000000;stroke-width:0.9993943px;stroke-linecap:butt;stroke-linejoin:round;stroke-miterlimit:10;stroke-dasharray:none;stroke-opacity:1"
         d="M 113.3429,134.32606 98.741748,121.41388"
         id="path85-1-3" />
      <path
         inkscape:connector-curvature="0"
         style="fill:none;stroke:#000000;stroke-width:1.05977368px;stroke-linecap:butt;stroke-linejoin:round;stroke-miterlimit:10;stroke-dasharray:none;stroke-opacity:1"
         d="m 113.3429,134.32606 c 1.18005,1.03784 0.53226,3.71037 -1.45208,5.95016 -1.98392,2.25035 -4.55115,3.22312 -5.7312,2.18528 -1.18048,-1.0484 -0.52161,-3.70995 1.4623,-5.96029 1.98392,-2.25034 4.55115,-3.22312 5.72098,-2.17515"
         id="path75-6-96-8" />
    </g>
  </g>
  <path
     style="fill:none;stroke:#000000;stroke-width:2.60359049px;stroke-linecap:butt;stroke-linejoin:round;stroke-miterlimit:10;stroke-dasharray:none;stroke-opacity:1"
     d="m 136.06632,110.71841 v 30.76682"
     id="path91"
     inkscape:connector-curvature="0" />
  <path
     style="fill:none;stroke:#000000;stroke-width:3.03815866px;stroke-linecap:butt;stroke-linejoin:round;stroke-miterlimit:10;stroke-dasharray:none;stroke-opacity:1"
     d="M 198.34979,90.105391 216.89855,75.394307"
     id="path93"
     inkscape:connector-curvature="0" />
  <path
     style="fill:none;stroke:#000000;stroke-width:3.03815866px;stroke-linecap:butt;stroke-linejoin:round;stroke-miterlimit:10;stroke-dasharray:none;stroke-opacity:1"
     d="M 136.30739,111.2126 169.08752,89.625681"
     id="path95"
     inkscape:connector-curvature="0" />
  <path
     style="fill:none;stroke:#000000;stroke-width:3.03815866px;stroke-linecap:butt;stroke-linejoin:round;stroke-miterlimit:10;stroke-dasharray:none;stroke-opacity:1"
     d="m 164.93004,88.986069 37.25742,0.639612"
     id="path111"
     inkscape:connector-curvature="0" />
  <path
     style="fill:#4f81bd;fill-opacity:1;fill-rule:evenodd;stroke:none"
     d="m 190.71441,88.006663 c 0.81951,-3.058147 4.27741,-4.817081 7.69534,-3.897638 3.41793,0.919443 5.51666,4.15748 4.69715,7.215627 -0.8195,3.058146 -4.25742,4.81708 -7.67534,3.897638 -3.41793,-0.919443 -5.53665,-4.157481 -4.71715,-7.215627 z"
     id="path141"
     inkscape:connector-curvature="0" />
  <path
     style="fill:none;stroke:#000000;stroke-width:0.9993943px;stroke-linecap:butt;stroke-linejoin:round;stroke-miterlimit:10;stroke-dasharray:none;stroke-opacity:1"
     d="m 190.71441,88.006663 c 0.81951,-3.058147 4.27741,-4.817081 7.69534,-3.897638 3.41793,0.919443 5.51666,4.15748 4.69715,7.215627 -0.8195,3.058146 -4.25742,4.81708 -7.67534,3.897638 -3.41793,-0.919443 -5.53665,-4.157481 -4.71715,-7.215627"
     id="path143"
     inkscape:connector-curvature="0" />
  <g
     id="g1297"
     transform="rotate(-1.9704887,193.7387,199.72622)">
    <path
       inkscape:connector-curvature="0"
       id="path145"
       d="m 223.62689,79.413083 -5.63658,-6.076317"
       style="fill:none;stroke:#000000;stroke-width:2.99818301px;stroke-linecap:butt;stroke-linejoin:round;stroke-miterlimit:10;stroke-dasharray:none;stroke-opacity:1" />
    <path
       sodipodi:nodetypes="cc"
       inkscape:connector-curvature="0"
       id="path147"
       d="m 217.99031,73.336766 2.69836,-6.775894"
       style="fill:none;stroke:#000000;stroke-width:2.99818301px;stroke-linecap:round;stroke-linejoin:round;stroke-miterlimit:10;stroke-dasharray:none;stroke-opacity:1" />
    <path
       sodipodi:nodetypes="cc"
       inkscape:connector-curvature="0"
       id="path149"
       d="m 223.62689,79.413083 7.08484,-1.135271"
       style="fill:none;stroke:#000000;stroke-width:2.99818301px;stroke-linecap:round;stroke-linejoin:round;stroke-miterlimit:10;stroke-dasharray:none;stroke-opacity:1" />
    <path
       inkscape:connector-curvature="0"
       id="path151"
       d="m 228.48395,64.801938 -7.79528,1.758934"
       style="fill:none;stroke:#000000;stroke-width:2.99799991;stroke-linecap:round;stroke-linejoin:round;stroke-miterlimit:10;stroke-dasharray:none;stroke-opacity:1" />
    <path
       inkscape:connector-curvature="0"
       id="path153"
       d="m 234.32954,71.661821 -3.61781,6.615991"
       style="fill:none;stroke:#000000;stroke-width:2.99818301px;stroke-linecap:round;stroke-linejoin:round;stroke-miterlimit:10;stroke-dasharray:none;stroke-opacity:1" />
  </g>
  <path
     style="fill:#000000;fill-opacity:1;fill-rule:nonzero;stroke:#000000;stroke-width:0.01998789px;stroke-linecap:butt;stroke-linejoin:round;stroke-miterlimit:10;stroke-dasharray:none;stroke-opacity:1"
     d="m 159.29346,42.0745 -1.13931,0.559661 -0.13992,-0.27983 1.13931,-0.579649 z m -1.9788,0.999395 -0.71957,0.399757 -0.37977,0.239855 -0.1599,-0.27983 0.39976,-0.239855 0.69957,-0.399758 z m -1.91884,1.139309 -0.27983,0.179891 -0.77953,0.519685 -0.17989,-0.259842 0.79952,-0.539673 0.27983,-0.159903 z m -1.85887,1.239249 -1.03937,0.739552 -0.17989,-0.259843 1.03937,-0.739551 z m -1.8189,1.299213 -1.01938,0.759539 -0.19988,-0.259842 1.01938,-0.75954 z m -1.79891,1.3192 -1.01938,0.779528 -0.19988,-0.259843 1.01938,-0.779527 z m -1.77892,1.339189 -1.03937,0.779527 -0.17989,-0.259842 1.01938,-0.75954 z m -1.79891,1.359176 -1.01939,0.75954 -0.19987,-0.239855 1.01938,-0.779528 z m -1.79891,1.339188 -1.01938,0.75954 -0.19988,-0.259843 1.03937,-0.759539 z m -1.79891,1.319201 -1.03937,0.759539 -0.17989,-0.259842 1.03937,-0.75954 z m -1.8189,1.3192 -1.03937,0.739552 -0.17989,-0.259843 1.03937,-0.739551 z m -1.83889,1.279225 -0.0999,0.09994 -0.95942,0.619625 -0.17989,-0.259843 0.93943,-0.639612 0.11992,-0.07995 z m -1.85887,1.259237 -0.23985,0.159903 -0.83949,0.519685 -0.1799,-0.279831 0.8395,-0.519685 0.23985,-0.159903 z m -1.89885,1.179285 -0.35978,0.219867 -0.75954,0.439733 -0.1599,-0.27983 0.73955,-0.419746 0.35978,-0.239854 z m -1.93882,1.119322 -0.45972,0.259842 -0.67959,0.359782 -0.13992,-0.27983 0.6596,-0.339794 0.45972,-0.279831 z m -1.9788,1.059358 -0.51969,0.27983 -0.63961,0.27983 -0.13992,-0.27983 0.63962,-0.299818 0.49969,-0.259843 z m -2.03877,0.959418 -0.51968,0.239855 -0.67959,0.239854 -0.0999,-0.299818 0.63961,-0.239855 0.51969,-0.239854 z m -2.09873,0.819503 -0.49969,0.199879 -0.71957,0.219867 -0.0999,-0.319806 0.69958,-0.199879 0.51968,-0.199879 z m -2.1387,0.699576 -0.4997,0.139916 -0.73955,0.179891 -0.08,-0.299819 0.71956,-0.179891 0.51969,-0.159903 z m -2.17868,0.559661 -0.51968,0.119928 -0.71957,0.159903 -0.0799,-0.319806 0.73955,-0.139916 0.51969,-0.139915 z m -2.19867,0.459722 -0.53967,0.09994 -0.71956,0.119927 -0.04,-0.299818 0.69958,-0.119927 0.53967,-0.119928 z m -2.19866,0.37977 -0.59964,0.09994 -0.67959,0.09994 -0.04,-0.319806 0.65961,-0.07995 0.59963,-0.09994 z m -2.21866,0.339794 -0.67959,0.07995 -0.59963,0.07995 -0.04,-0.319807 0.59964,-0.05996 0.67958,-0.09994 z m -2.21866,0.27983 -1.27922,0.159903 -0.04,-0.319806 1.27923,-0.159903 z m -2.21865,0.27983 -0.87947,0.09994 -0.39976,0.05996 -0.04,-0.319806 0.39976,-0.03997 0.87946,-0.119928 z m -2.21866,0.279831 -1.27922,0.179891 -0.04,-0.319806 1.25924,-0.179891 z M 107.46487,66 l -1.11932,0.139915 -0.15991,0.03998 -0.04,-0.319806 0.1599,-0.01999 1.09934,-0.159903 z m -2.21866,0.319806 -1.21926,0.199879 -0.04,0.01999 -0.06,-0.319806 h 0.06 l 1.19927,-0.199879 z m -2.19866,0.399758 -1.25924,0.259842 -0.06,-0.319806 1.25923,-0.259842 z m -2.17868,0.459721 -1.259239,0.299819 -0.06,-0.299819 1.239239,-0.299818 z m -2.158699,0.559661 -1.23924,0.359782 -0.08,-0.299818 1.21927,-0.359782 z m -2.1387,0.6596 -1.199272,0.439734 -0.09994,-0.299818 1.199272,-0.439734 z m -2.078739,0.779528 -1.179286,0.519685 -0.119927,-0.299818 1.179285,-0.499697 z m -2.038765,0.919443 -1.139309,0.559661 -0.139916,-0.279831 1.13931,-0.579649 z m -1.998788,0.999394 -1.13931,0.599637 -0.139915,-0.299819 1.139309,-0.579648 z m -1.978801,1.03937 -0.09994,0.05996 -1.019382,0.559661 -0.159903,-0.279831 1.03937,-0.579649 0.09994,-0.03997 z m -1.958813,1.079346 -0.419746,0.239855 -0.679588,0.399757 -0.159903,-0.27983 0.699576,-0.399758 0.399758,-0.239854 z m -1.918837,1.119322 -0.779528,0.459721 -0.319806,0.199879 -0.179891,-0.259843 0.319806,-0.199879 0.779528,-0.459721 z m -1.918837,1.179285 -1.079346,0.6596 -0.179891,-0.259842 1.099334,-0.679589 z m -1.878861,1.179285 -1.079346,0.699576 -0.179891,-0.259842 1.079346,-0.699576 z m -1.878862,1.239249 -1.059358,0.719564 -0.179891,-0.259843 1.059358,-0.719563 z m -1.838885,1.259237 -0.139915,0.09994 -0.899455,0.639613 -0.199879,-0.259843 0.919443,-0.6596 0.139915,-0.07995 z m -1.818898,1.299213 -0.559661,0.399757 -0.459721,0.359782 -0.199879,-0.239854 0.479709,-0.37977 0.559661,-0.399758 z m -1.79891,1.339188 -0.93943,0.719564 -0.05996,0.05996 -0.199879,-0.259842 0.05996,-0.03998 0.959418,-0.719564 z m -1.758934,1.379164 -0.999394,0.799515 -0.199879,-0.259842 0.999395,-0.799515 z m -1.738946,1.399152 -0.959418,0.839491 -0.219867,-0.239854 0.979406,-0.839492 z m -1.69897,1.459116 -0.939431,0.859479 -0.219866,-0.239855 0.959418,-0.859479 z m -1.658995,1.499091 -0.199878,0.179891 -0.719564,0.699576 -0.219867,-0.239854 0.739552,-0.699576 0.199879,-0.179891 z m -1.59903,1.539067 -0.419746,0.419746 -0.479709,0.479709 -0.239855,-0.219866 0.479709,-0.499698 0.439734,-0.399757 z m -1.579043,1.599031 -0.559661,0.599637 -0.299819,0.339794 -0.239854,-0.219867 0.299818,-0.339794 0.579649,-0.599636 z m -1.499092,1.658995 -0.639612,0.739552 -0.179891,0.219866 -0.239855,-0.199878 0.179891,-0.239855 0.639612,-0.739552 z m -1.41914,1.718958 -0.639612,0.799516 -0.119928,0.199878 -0.259842,-0.179891 0.139915,-0.199878 0.639613,-0.819504 z m -1.299212,1.778922 -0.519685,0.879467 -0.09994,0.219867 -0.27983,-0.139916 0.119927,-0.239854 0.499697,-0.879467 z M 58.19473,97.820715 57.814961,98.72017 57.735011,99 l -0.319806,-0.09994 0.119927,-0.299819 0.359782,-0.899455 z m -0.759539,2.098725 -0.259843,0.91945 -0.07995,0.29981 -0.299819,-0.06 0.05996,-0.33979 0.259843,-0.91945 z m -0.519685,2.15869 -0.199879,0.95942 -0.03998,0.27983 -0.319806,-0.04 0.03998,-0.31981 0.199878,-0.93943 z m -0.37977,2.19867 -0.139915,1.01938 -0.01999,0.23986 -0.319806,-0.04 0.03998,-0.23985 0.139916,-1.01938 z m -0.239855,2.21866 -0.09994,1.09933 v 0.1599 l -0.319806,-0.02 v -0.15991 l 0.09994,-1.11932 z m -0.159903,2.21865 -0.07995,1.27923 -0.319807,-0.02 0.07995,-1.27923 z m -0.119927,2.23865 -0.07995,1.25923 v 0.02 l -0.319806,-0.02 v -0.02 l 0.07995,-1.25923 z m -0.159903,2.23864 -0.07995,1.27922 -0.319806,-0.04 0.07995,-1.25924 z m -0.179891,2.23864 -0.139915,1.25924 v 0.02 l -0.319807,-0.04 v 0 l 0.139916,-1.27922 z m -0.299819,2.21866 -0.199878,1.17928 -0.01999,0.0999 -0.319807,-0.08 0.01999,-0.0799 0.199879,-1.17929 z m -0.479709,2.19867 -0.259842,0.99939 -0.07995,0.23985 -0.299818,-0.0999 0.07995,-0.23985 0.259843,-0.97941 z m -0.699576,2.15869 -0.319806,0.71956 -0.219867,0.43973 -0.27983,-0.13991 0.219867,-0.41975 0.319806,-0.73955 z m -1.03937,1.99879 -0.27983,0.43973 -0.47971,0.59964 -0.259842,-0.19988 0.459721,-0.57965 0.299819,-0.43974 z m -1.41914,1.75893 -0.179891,0.19988 -0.779527,0.67959 -0.199879,-0.25985 0.739552,-0.63961 0.199878,-0.19988 z m -1.758934,1.43913 -0.09994,0.0799 -1.019382,0.55966 -0.159904,-0.27983 0.979407,-0.53967 0.119927,-0.08 z m -2.018776,0.99939 -0.259843,0.0999 -0.979406,0.31981 -0.07995,-0.29982 0.939431,-0.29982 0.259842,-0.0999 z m -2.17868,0.6596 -0.739552,0.17989 -0.519685,0.0799 -0.05996,-0.3198 0.499697,-0.0799 0.759539,-0.15991 z m -2.198667,0.43974 h -0.03998 l -1.239249,0.1599 -0.03998,-0.31981 1.239249,-0.1599 h 0.01999 z m -2.238644,0.25984 -1.059358,0.0999 -0.219866,0.02 -0.01999,-0.31981 0.199879,-0.02 1.079345,-0.0999 z m -2.238643,0.17989 -0.579649,0.02 -0.699576,0.04 v -0.3198 l 0.679589,-0.04 0.579648,-0.02 z m -2.238643,0.0999 h -0.159903 l -1.119322,0.02 v -0.31981 l 1.099334,-0.02 h 0.179891 z m -2.238643,0.02 h -1.279225 v -0.31981 h 1.279225 z m -2.238644,0 -1.279224,-0.02 v -0.31981 l 1.279224,0.02 z m -2.238643,-0.04 -1.279225,-0.02 v -0.3198 l 1.279225,0.02 z m -2.238643,-0.04 -0.919443,-0.04 h -0.359782 v -0.31981 h 0.37977 l 0.899455,0.04 z m -2.238643,-0.0799 -1.279225,-0.04 v -0.31981 l 1.279225,0.04 z m -2.238644,-0.0799 -0.419745,-0.02 -0.859479,-0.02 v -0.31981 l 0.879467,0.02 0.399757,0.02 z m -2.238643,-0.0799 -1.279225,-0.04 v -0.3198 l 1.279225,0.04 z m -2.238643,-0.06 -1.279225,-0.02 v -0.31981 l 1.279225,0.02 z m -2.238643,-0.04 -1.279225,-0.02 v -0.3198 l 1.279225,0.02 z m -2.238644,-0.04 h -0.919442 -0.359782 v -0.3198 h 0.37977 0.899454 z m -2.238643,0.02 h -0.37977 l -0.879467,0.04 -0.01999,-0.31981 0.879467,-0.04 h 0.399758 z m -2.218655,0.0799 -1.2792249,0.08 -0.01999,-0.31981 1.2792249,-0.0799 z m -2.2386429,0.1799 -0.579649,0.04 -0.679588,0.0999 -0.03998,-0.31981 0.699576,-0.0799 0.579649,-0.06 z m -2.1986679,0.29981 -0.9194428,0.17989 -0.2998183,0.0999 -0.099939,-0.3198 0.3198062,-0.0799 0.9394306,-0.19988 z m -2.118716,0.55966 -0.8195033,0.31981 -0.3397941,0.17989 -0.159903,-0.27983 0.3797698,-0.19988 0.8195033,-0.3198 z m -1.918837,1.01939 -0.2998183,0.23985 0.019988,-0.02 -0.45972136,0.61963 0.019988,-0.04 -0.039976,0.11993 -0.2998183,-0.11993 0.059964,-0.11993 c 0,-0.02 0,-0.02 0.019988,-0.04 l 0.45972136,-0.61963 c 0,0 0,-0.02 0.019988,-0.02 l 0.2998183,-0.23986 z m -1.07934586,1.79891 -0.099939,0.41974 v -0.02 l -0.039976,0.81951 v 0 l -0.3198062,0.02 v -0.02 l 0.039976,-0.83949 c 0,0 0,-0.02 0,-0.02 l 0.099939,-0.43974 z m -0.059964,2.15869 0.159903,0.85948 0.1199274,0.35978 -0.3198062,0.0999 -0.099939,-0.39976 -0.179891,-0.85948 z m 0.5596608,2.11871 0.27983036,0.75954 0.1998788,0.41975 -0.2998183,0.13991 -0.19987876,-0.43973 -0.2798304,-0.75954 z m 0.87946696,2.05876 0.4597213,0.91944 0.1199274,0.19988 -0.2798304,0.1599 -0.1199274,-0.21987 -0.4797092,-0.91944 z m 1.03937,1.95881 0.079952,0.11993 0.5796487,0.95941 -0.2598425,0.1799 -0.5996366,-0.97941 -0.059964,-0.11993 z m 1.1792853,1.89885 0.4397335,0.6596 0.2798304,0.39976 -0.2798304,0.17989 -0.2798304,-0.41975 -0.4197456,-0.6596 z m 1.2592368,1.83888 0.039976,0.06 0.6995757,0.9794 -0.259842,0.17989 -0.6995762,-0.95941 -0.039976,-0.08 z m 1.3192005,1.79891 0.779528,1.01939 -0.259843,0.19987 -0.779527,-1.01938 z m 1.359176,1.77893 0.299819,0.37977 0.499697,0.61962 -0.239855,0.19988 -0.519685,-0.61963 -0.299818,-0.37977 z m 1.399152,1.73894 0.8195043,0.97941 -0.2398553,0.21986 -0.819503,-0.99939 z m 1.4391283,1.71896 0.819503,0.97941 -0.239854,0.19987 -0.819504,-0.9794 z m 1.459116,1.69897 0.439733,0.51969 0.399758,0.43973 -0.239855,0.21987 -0.399757,-0.43974 -0.459722,-0.53967 z m 1.459115,1.67898 0.85948,0.95942 -0.239855,0.19988 -0.839491,-0.93943 z m 1.499092,1.659 0.859479,0.95942 -0.239855,0.19987 -0.859479,-0.93943 z m 1.519079,1.65899 0.679588,0.73955 0.179891,0.19988 -0.239854,0.21987 -0.179891,-0.19988 -0.679588,-0.73955 z m 1.51908,1.63901 0.879467,0.93943 -0.239855,0.21987 -0.879467,-0.93944 z m 1.519079,1.639 0.899455,0.91945 -0.239855,0.21986 -0.879467,-0.91944 z m 1.559055,1.61902 0.6596,0.69958 0.219867,0.21987 -0.239855,0.21986 -0.199878,-0.21986 -0.679589,-0.69958 z m 1.539067,1.61902 0.899455,0.91945 -0.239854,0.21986 -0.879467,-0.91944 z m 1.559055,1.59903 0.879467,0.93943 -0.219866,0.21987 -0.899455,-0.93943 z m 1.539068,1.61902 0.09994,0.0999 0.779528,0.83949 -0.239855,0.21987 -0.75954,-0.83949 -0.09994,-0.0999 z m 1.539067,1.63901 0.859479,0.93943 -0.219867,0.21987 -0.879467,-0.93943 z m 1.519079,1.63901 0.639613,0.69957 0.239854,0.23986 -0.239854,0.21986 -0.219867,-0.25984 -0.6596,-0.67959 z m 1.51908,1.639 0.879467,0.93943 -0.239855,0.21987 -0.859479,-0.93943 z m 1.519079,1.659 0.879467,0.93943 -0.239855,0.21986 -0.879467,-0.95941 z m 1.519079,1.61902 0.899455,0.91944 -0.239854,0.21986 -0.879467,-0.91944 z m 1.559055,1.61901 0.899455,0.91945 -0.239854,0.21986 -0.879467,-0.91944 z m 1.559056,1.59904 0.919442,0.89945 -0.219866,0.21987 -0.919443,-0.87947 z m 1.619018,1.55905 0.199879,0.19988 0.739552,0.6596 -0.219867,0.23985 -0.759539,-0.67958 -0.199879,-0.1799 z m 1.639007,1.49909 0.439733,0.37977 0.539673,0.43973 -0.199878,0.25985 -0.559661,-0.45972 -0.419746,-0.37977 z m 1.718958,1.43913 0.679588,0.55966 0.299819,0.23985 -0.179891,0.25985 -0.319807,-0.23986 -0.679588,-0.57965 z m 1.758934,1.35918 0.979407,0.73955 0.03997,0.02 -0.179891,0.27983 -0.05996,-0.04 -0.979407,-0.73955 z m 1.818898,1.29921 1.059358,0.71956 -0.179891,0.25984 -1.059358,-0.71956 z m 1.858873,1.21926 1.099334,0.63961 -0.159903,0.27983 -1.099334,-0.6596 z m 1.938825,1.11932 1.13931,0.57965 -0.159903,0.27983 -1.13931,-0.57965 z m 1.998789,0.9994 0.27983,0.1599 0.859479,0.37977 -0.119927,0.27983 -0.879467,-0.37977 -0.299818,-0.13992 z m 2.018776,0.91944 0.879467,0.37977 0.299819,0.0999 -0.09994,0.29982 -0.319806,-0.11993 -0.879467,-0.37977 z m 2.07874,0.79951 1.199274,0.43974 -0.09994,0.29982 -1.199273,-0.43974 z m 2.118716,0.71957 1.219261,0.35978 -0.07995,0.29982 -1.239249,-0.3398 z m 2.138704,0.61962 0.339794,0.0999 0.899455,0.19988 -0.07995,0.31981 -0.899455,-0.19988 -0.339794,-0.0999 z m 2.17868,0.51969 1.239249,0.27983 -0.05996,0.3198 -1.259237,-0.29981 z m 2.178679,0.43973 1.259237,0.19988 -0.03998,0.31981 -1.259236,-0.19988 z m 2.218656,0.35978 0.319806,0.06 0.939431,0.0999 -0.03998,0.3198 -0.939431,-0.11993 -0.339794,-0.04 z m 2.198667,0.25984 1.279225,0.15991 -0.03998,0.3198 -1.259237,-0.1599 z m 2.218656,0.23986 1.279224,0.0999 -0.01999,0.31981 -1.279224,-0.0999 z m 2.238643,0.1599 0.859479,0.06 0.419746,0.02 -0.01999,0.31981 -0.439734,-0.02 -0.839491,-0.06 z m 2.238643,0.11993 1.279225,0.06 -0.01999,0.31981 -1.279225,-0.06 z m 2.238643,0.0999 h 0.179891 l 1.079346,0.02 v 0.3198 l -1.079346,-0.02 h -0.199879 z m 2.218656,0.04 h 1.279224 v 0.3198 H 79.38189 Z m 2.238643,0.02 1.279225,-0.02 v 0.3198 l -1.279225,0.02 z m 2.238643,-0.02 h 1.279225 v 0.3198 h -1.279225 z m 2.238643,-0.02 1.279225,-0.04 v 0.31981 l -1.279225,0.04 z m 2.238644,-0.06 1.179285,-0.04 h 0.09994 v 0.3198 h -0.07995 l -1.199273,0.04 z m 2.238643,-0.06 1.279225,-0.06 v 0.3198 l -1.279225,0.06 z m 2.238643,-0.0799 0.979407,-0.04 0.299818,-0.02 v 0.31981 l -0.299818,0.02 -0.979407,0.04 z m 2.238643,-0.0999 1.279229,-0.06 v 0.3198 l -1.279229,0.06 z m 2.238639,-0.0999 0.85948,-0.04 h 0.39976 l 0.02,0.31981 h -0.39976 l -0.87947,0.04 z m 2.21866,-0.0999 1.279219,-0.04 0.02,0.31981 -1.279219,0.04 z m 2.238639,-0.0999 0.85948,-0.04 0.41975,-0.02 0.02,0.3198 -0.43974,0.02 -0.83949,0.04 z m 2.23865,-0.0999 1.27922,-0.06 0.02,0.3198 -1.27923,0.06 z m 2.23864,-0.0999 0.87947,-0.04 0.39975,-0.02 0.02,0.3198 -0.39976,0.02 -0.87946,0.04 z m 2.23864,-0.0999 1.27923,-0.06 0.02,0.3198 -1.27923,0.06 z m 2.23865,-0.0999 0.99939,-0.04 0.27983,-0.02 v 0.31981 l -0.27983,0.02 -0.97941,0.04 z m 2.23864,-0.08 1.27922,-0.04 v 0.3198 l -1.27922,0.04 z m 2.23864,-0.0799 1.13931,-0.04 h 0.13992 v 0.31981 h -0.11993 l -1.1593,0.04 z m 2.23865,-0.06 1.27922,-0.04 v 0.31981 l -1.27922,0.04 z m 2.23864,-0.06 1.27922,-0.04 v 0.3198 l -1.27922,0.04 z m 2.23864,-0.06 h 1.27923 v 0.31981 h -1.27923 z m 2.23865,-0.02 1.27922,-0.02 v 0.31981 l -1.27922,0.02 z m 2.23864,-0.02 h 1.27922 v 0.31981 h -1.27922 z m 2.23864,0 1.27923,0.02 v 0.31981 l -1.27923,-0.02 z m 2.23865,0.04 1.27922,0.02 v 0.3198 l -1.27922,-0.02 z m 2.23864,0.04 h 0.33979 l 0.93943,0.04 v 0.31981 l -0.95942,-0.04 h -0.3198 z m 2.23864,0.06 0.89946,0.02 0.37977,0.02 v 0.31981 l -0.37977,-0.02 -0.89946,-0.02 z m 2.23865,0.0799 1.27922,0.04 v 0.3198 l -1.27922,-0.04 z m 2.23864,0.0799 1.27922,0.04 -0.02,0.3198 -1.27923,-0.04 z m 2.23864,0.08 h 0.0999 l 1.17929,0.06 -0.02,0.3198 -1.1593,-0.06 h -0.11993 z m 2.23864,0.0999 0.93944,0.02 0.33979,0.02 -0.02,0.3198 -0.3198,-0.02 -0.95942,-0.02 z m 2.23865,0.08 1.27922,0.06 -0.02,0.3198 -1.27922,-0.06 z m 2.23864,0.0999 1.27923,0.06 -0.02,0.3198 -1.27923,-0.06 z m 2.23864,0.0999 1.27923,0.06 -0.02,0.3198 -1.27922,-0.06 z m 2.21866,0.0999 1.27922,0.06 v 0.3198 l -1.27922,-0.06 z m 2.23864,0.0999 1.27923,0.06 v 0.3198 l -1.27923,-0.06 z m 2.23865,0.0999 1.27922,0.06 -0.02,0.31981 -1.25923,-0.06 z m 2.23864,0.0999 1.27922,0.06 -0.02,0.31981 -1.27923,-0.06 z m 2.23864,0.0999 1.27923,0.06 -0.02,0.31981 -1.27922,-0.06 z m 2.23865,0.0999 1.27922,0.04 -0.02,0.3198 -1.27922,-0.04 z m 2.23864,0.0799 1.21926,0.04 0.06,0.02 -0.02,0.31981 -0.04,-0.02 -1.23925,-0.04 z m 2.23864,0.0799 1.27923,0.04 -0.02,0.3198 -1.27923,-0.04 z m 2.23865,0.0799 1.27922,0.04 -0.02,0.31981 -1.27922,-0.04 z m 2.23864,0.06 0.95942,0.04 h 0.29982 v 0.31981 h -0.29982 l -0.97941,-0.04 z m 2.21865,0.0799 1.27923,0.02 v 0.3198 l -1.27923,-0.02 z m 2.23865,0.04 1.27922,0.04 v 0.31981 l -1.27922,-0.04 z m 2.23864,0.04 0.53967,0.02 h 0.73956 v 0.3198 h -0.75954 l -0.51969,-0.02 z m 2.23864,0.04 h 1.27923 v 0.3198 h -1.27923 z m 2.23865,0 h 1.27922 v 0.3198 h -1.27922 z m 2.23864,0 h 1.27923 v 0.3198 h -1.27923 z m 2.23864,-0.02 h 0.39976 l 0.87947,-0.02 v 0.31981 l -0.87947,0.02 h -0.39976 z m 2.23865,-0.04 0.89945,-0.02 0.37977,-0.02 v 0.3198 l -0.37977,0.02 -0.89945,0.02 z m 2.23864,-0.0799 1.27923,-0.04 v 0 l 0.02,0.3198 h -0.02 l -1.27923,0.04 z m 2.23864,-0.0999 1.25924,-0.06 0.02,0.3198 -1.27923,0.06 z m 2.21866,-0.13991 1.27922,-0.0999 0.02,0.3198 -1.27922,0.0999 z m 2.21865,-0.19988 1.27923,-0.13992 0.04,0.31981 -1.27923,0.13991 z m 2.21866,-0.25984 1.27922,-0.1799 0.04,0.31981 -1.25924,0.17989 z m 2.21866,-0.3398 0.9794,-0.17989 0.25984,-0.06 0.08,0.29981 -0.27983,0.06 -0.97941,0.19988 z m 2.17867,-0.47971 0.43974,-0.0999 0.77953,-0.25984 0.0799,0.31981 -0.79952,0.23985 -0.43973,0.11993 z m 2.09873,-0.6596 0.93943,-0.39976 0.19988,-0.11992 0.15991,0.25984 -0.23986,0.13991 -0.93943,0.39976 z m 1.91884,-1.01938 0.67959,-0.61962 -0.02,0.04 0.21987,-0.29982 0.25984,0.17989 -0.21987,0.29982 c 0,0.02 -0.02,0.02 -0.02,0.02 l -0.67958,0.61962 z m 1.29921,-1.69897 0.15991,-0.41975 v 0.04 l 0.0999,-0.8195 0.3198,0.04 -0.11993,0.81951 c 0,0.02 0,0.02 0,0.04 l -0.1599,0.41975 z m 0.19988,-2.11872 -0.02,-0.0799 0.02,0.02 -0.25984,-1.01938 -0.04,-0.11993 0.29982,-0.11993 0.06,0.15991 0.23985,1.01938 c 0,0 0,0.02 0,0.02 l 0.02,0.0799 z m -0.6596,-2.09872 v -0.04 l -0.53967,-1.09933 0.27983,-0.13992 0.53967,1.11932 0.02,0.04 z m -1.03937,-1.93883 -0.23985,-0.39976 -0.45972,-0.6596 0.27983,-0.17989 0.45972,0.67959 0.23985,0.39976 z m -1.23925,-1.83889 -0.77953,-1.01938 0.25985,-0.19988 0.77952,1.01939 z m -1.37916,-1.75893 -0.47971,-0.57965 -0.3398,-0.37977 0.23986,-0.21986 0.33979,0.39975 0.47971,0.57965 z m -1.45912,-1.67898 -0.19988,-0.21987 -0.6596,-0.71956 0.21987,-0.21987 0.67959,0.71956 0.19988,0.21987 z m -1.51908,-1.63901 -0.87946,-0.91944 0.21986,-0.23986 0.89946,0.93943 z m -1.55905,-1.61902 -0.89946,-0.89945 0.21987,-0.21987 0.89945,0.89946 z m -1.59903,-1.55905 -0.91945,-0.87947 0.21987,-0.21987 0.91944,0.87947 z m -1.61902,-1.53907 -0.83949,-0.77953 -0.0799,-0.0999 0.19987,-0.23985 0.0999,0.0999 0.83949,0.79951 z m -1.63901,-1.51908 -0.93943,-0.85948 0.21987,-0.23985 0.93943,0.85948 z m -1.65899,-1.51908 -0.59964,-0.55966 -0.33979,-0.27983 0.21986,-0.23985 0.31981,0.29981 0.61962,0.55967 z m -1.659,-1.4791 -0.95942,-0.85948 0.21987,-0.23986 0.95942,0.85948 z m -1.65899,-1.49909 -0.41975,-0.35979 -0.53967,-0.4797 0.19988,-0.23986 0.55966,0.47971 0.39976,0.35978 z m -1.67898,-1.47911 -0.95942,-0.83949 0.19988,-0.23985 0.95941,0.83949 z m -1.67899,-1.4791 -0.11992,-0.11993 -0.8395,-0.73955 0.19988,-0.23985 0.83949,0.73955 0.11993,0.11993 z m -1.67898,-1.4791 -0.95942,-0.85948 0.19988,-0.23986 0.95942,0.85948 z m -1.67898,-1.4991 -0.95942,-0.83949 0.21987,-0.23985 0.95941,0.83949 z m -1.659,-1.49909 -0.75954,-0.69957 -0.17989,-0.15991 0.19988,-0.23985 0.17989,0.17989 0.75954,0.67959 z m -1.65899,-1.51908 -0.35978,-0.33979 -0.55966,-0.53967 0.21986,-0.23986 0.55966,0.53968 0.35979,0.33979 z m -1.61902,-1.53906 -0.89945,-0.91945 0.21986,-0.21986 0.91944,0.89945 z m -1.55905,-1.61902 -0.3398,-0.35978 -0.55966,-0.55966 0.23985,-0.21987 0.53968,0.55966 0.33979,0.35978 z m -1.55906,-1.59903 -0.61962,-0.63962 -0.27983,-0.25984 0.21986,-0.21986 0.27983,0.25984 0.61963,0.63961 z m -1.61902,-1.53907 -0.93943,-0.85948 0.21987,-0.23985 0.93943,0.85948 z m -1.65899,-1.4791 -0.97941,-0.81951 0.19988,-0.23985 0.97941,0.8195 z m -1.73895,-1.41914 -0.99939,-0.77953 0.19988,-0.25984 0.99939,0.77952 z m -1.75893,-1.37917 -1.01939,-0.75954 0.1799,-0.25984 1.03937,0.75954 z m -1.79891,-1.3192 -0.27983,-0.21987 -0.75954,-0.53967 0.19988,-0.25984 0.75954,0.55966 0.27983,0.19988 z m -1.8189,-1.3192 -0.57965,-0.41974 -0.45972,-0.31981 0.19988,-0.25984 0.45972,0.3198 0.57965,0.41975 z m -1.8189,-1.27922 -0.83949,-0.57965 -0.19988,-0.15991 0.17989,-0.25984 0.21987,0.13992 0.8195,0.59963 z m -1.83888,-1.29922 -0.9994,-0.71956 -0.04,-0.02 0.17989,-0.25984 0.04,0.02 1.01938,0.71956 z m -1.8189,-1.29921 -1.03937,-0.73955 0.19988,-0.25984 1.03937,0.73955 z m -1.79891,-1.3192 -1.01938,-0.77953 0.19988,-0.25984 1.01938,0.77953 z m -1.77892,-1.39915 -0.91945,-0.73955 -0.06,-0.0799 0.21987,-0.21987 0.06,0.04 0.91944,0.75954 z m -1.69897,-1.45912 -0.63962,-0.59963 -0.27983,-0.29982 0.21987,-0.21987 0.27983,0.29982 0.63961,0.57965 z m -1.57905,-1.59903 -0.25984,-0.29982 -0.4997,-0.6596 -0.06,-0.06 0.27983,-0.17989 0.02,0.06 0.4997,0.63961 0.25984,0.27984 z m -1.33918,-1.83888 -0.21987,-0.41975 -0.27983,-0.6596 -0.04,-0.11993 0.29982,-0.0799 0.02,0.06 0.27983,0.63961 0.21987,0.41974 z m -0.77953,-2.13871 -0.06,-0.27983 -0.04,-0.67959 0.04,-0.35978 0.31981,0.04 -0.04,0.29982 0.04,0.63961 0.04,0.27983 z m 0.0999,-2.27862 0.02,-0.04 0.21987,-0.67959 0.21987,-0.4997 0.29982,0.11993 -0.21987,0.4997 -0.21987,0.61962 v 0.04 z m 0.91944,-2.09872 0.41975,-0.61963 0.3198,-0.43973 0.23986,0.19988 -0.29982,0.39975 -0.39976,0.63962 z m 1.35918,-1.79891 0.69957,-0.79952 0.15991,-0.1599 0.21986,0.23985 -0.13991,0.13992 -0.69958,0.77952 z m 1.55905,-1.61902 0.47971,-0.45972 0.47971,-0.39976 0.21987,0.23985 -0.47971,0.39976 -0.47971,0.45972 z m 1.69897,-1.47911 0.29982,-0.23985 0.71956,-0.53967 0.19988,0.25984 -0.71956,0.51968 -0.29982,0.23986 z m 1.79891,-1.35917 0.13992,-0.0999 0.89945,-0.63961 0.17989,0.27983 -0.87946,0.59963 -0.15991,0.11993 z m 1.83889,-1.27923 0.04,-0.02 1.03937,-0.6596 0.17989,0.25985 -1.03937,0.6596 -0.04,0.02 z m 1.89885,-1.19927 1.09933,-0.6596 0.1599,0.27983 -1.09933,0.63961 z m 1.91883,-1.13931 1.11932,-0.6596 0.15991,0.27983 -1.11932,0.6596 z m 1.93883,-1.13931 1.11932,-0.59964 0.1599,0.27983 -1.11932,0.59964 z m 1.9788,-1.05936 1.11932,-0.61962 0.1599,0.27983 -1.13931,0.61962 z m 1.9788,-1.05936 0.99939,-0.53967 0.11993,-0.06 0.1599,0.27983 -0.13991,0.0799 -0.9994,0.51968 z m 1.9788,-1.03937 0.53967,-0.29981 0.59964,-0.27983 0.13991,0.27983 -0.59963,0.29981 -0.53967,0.27983 z m 2.01878,-0.99939 1.19927,-0.45972 0.11993,0.29982 -1.19928,0.45972 z m 2.11871,-0.77953 0.79952,-0.25984 0.41974,-0.0999 0.08,0.29982 -0.39976,0.11993 -0.81951,0.25984 z m 2.15869,-0.59963 0.13992,-0.04 1.11932,-0.21987 0.06,0.29982 -1.09933,0.23986 -0.13991,0.04 z m 2.19867,-0.43974 0.95942,-0.1599 0.31981,-0.04 0.04,0.31981 -0.29982,0.04 -0.95941,0.1599 z m 2.21866,-0.3198 1.27922,-0.17989 0.04,0.3198 -1.25924,0.1599 z m 2.21865,-0.29982 1.27923,-0.15991 0.04,0.31981 -1.25923,0.1599 z m 2.23865,-0.27983 0.45972,-0.06 0.79951,-0.11992 0.04,0.29981 -0.79952,0.11993 -0.45972,0.06 z m 2.19866,-0.3398 1.25924,-0.21986 0.06,0.3198 -1.25923,0.21987 z m 2.19867,-0.41974 0.75954,-0.15991 0.47971,-0.11992 0.0799,0.29982 -0.47971,0.13991 -0.77953,0.1599 z m 2.15869,-0.51969 0.17989,-0.06 1.03937,-0.31981 0.0999,0.29982 -1.03937,0.3398 -0.19988,0.04 z m 2.11872,-0.69957 1.17928,-0.45972 0.11993,0.29981 -1.19927,0.45973 z m 2.05875,-0.83949 0.8195,-0.35979 0.35979,-0.1599 0.11992,0.29982 -0.33979,0.1599 -0.83949,0.35978 z m 2.03876,-0.89946 0.47971,-0.21987 0.69958,-0.3198 0.11993,0.29982 -0.67959,0.3198 -0.47971,0.19988 z m 2.03877,-0.93943 1.1593,-0.51968 0.13991,0.27983 -1.1593,0.53967 z m 2.03876,-0.93943 1.13931,-0.55966 0.13992,0.27983 -1.13931,0.57965 z m 1.99879,-0.97941 1.13931,-0.57965 0.13992,0.29982 -1.13931,0.55966 z m 1.99879,-1.01938 1.11932,-0.59964 0.15991,0.27983 -1.13931,0.59964 z m 1.95881,-1.05936 1.13931,-0.59963 0.13992,0.27983 -1.11932,0.61962 z m 1.95882,-1.07934 1.09933,-0.6596 0.1599,0.27983 -1.09933,0.6596 z m 1.91883,-1.139312 0.89946,-0.539673 0.19988,-0.119928 0.1599,0.259843 -0.17989,0.119927 -0.91944,0.539673 z m 1.89885,-1.199274 0.71957,-0.459721 0.33979,-0.239855 0.17989,0.259843 -0.35978,0.259842 -0.69958,0.459722 z m 1.83889,-1.239249 0.51968,-0.359781 0.51969,-0.399758 0.17989,0.259842 -0.51969,0.399758 -0.51968,0.359782 z m 1.79891,-1.3192 0.29982,-0.219867 0.69957,-0.579648 0.19988,0.239854 -0.69957,0.579649 -0.29982,0.219867 z m 1.73894,-1.399152 0.06,-0.03998 0.89945,-0.799515 0.21987,0.219866 -0.91944,0.819504 -0.06,0.03998 z m 1.659,-1.499092 0.89945,-0.899454 0.23986,0.239854 -0.91944,0.899455 z m 1.57904,-1.579043 0.81951,-0.859479 0.06,-0.05996 0.21987,0.219866 -0.06,0.05996 -0.8195,0.859479 z m 1.53907,-1.619018 0.67959,-0.679588 0.21986,-0.239855 0.21987,0.219867 -0.21987,0.239854 -0.6596,0.679588 z m 1.55905,-1.599031 0.57965,-0.599637 0.29982,-0.319806 0.23986,0.219867 -0.31981,0.339794 -0.55966,0.579649 z m 1.53907,-1.619019 0.51969,-0.559661 0.35978,-0.37977 0.21987,0.199879 -0.35979,0.399758 -0.49969,0.559661 z m 1.51908,-1.658995 0.45972,-0.519685 0.37977,-0.439733 0.23986,0.219867 -0.37977,0.439733 -0.45972,0.519685 z m 1.45912,-1.678982 0.41974,-0.499697 0.39976,-0.479709 0.23985,0.199878 -0.37977,0.499698 -0.43973,0.479709 z m 1.41914,-1.738946 0.35978,-0.459721 0.39976,-0.559661 0.25984,0.199879 -0.41975,0.55966 -0.35978,0.459722 z m 1.3192,-1.79891 0.25984,-0.359782 0.43973,-0.679588 0.27983,0.159903 -0.45972,0.699576 -0.25984,0.37977 z m 1.21926,-1.858873 0.13991,-0.219867 0.47971,-0.879467 0.27983,0.139915 -0.47971,0.899455 -0.1599,0.239855 z m 1.05936,-1.938825 0.37977,-0.839491 0.11992,-0.339794 0.29982,0.119927 -0.13991,0.339794 -0.37977,0.839491 z m 0.8195,-2.058752 0.13991,-0.47971 0.1799,-0.759539 0.29981,0.07995 -0.17989,0.779528 -0.13991,0.459721 z m 0.45972,-2.158692 0.06,-0.779528 -0.02,-0.479709 0.3198,-0.01999 0.02,0.539673 -0.06,0.75954 z m -0.06,-2.198668 v -0.159903 l -0.19988,-0.759539 -0.0999,-0.279831 0.29982,-0.119927 0.11992,0.339794 0.1799,0.779528 0.02,0.159903 z m -0.67959,-2.058752 -0.1599,-0.359782 -0.47971,-0.699576 v 0 l 0.23985,-0.219867 0.04,0.03998 0.47971,0.739552 0.17989,0.359782 z m -1.23925,-1.79891 -0.69958,-0.699576 -0.21986,-0.179891 0.21986,-0.239854 0.21987,0.199879 0.69958,0.699576 z m -1.63901,-1.479103 -0.87946,-0.679588 -0.13992,-0.07995 0.17989,-0.259842 0.13992,0.09994 0.89945,0.6596 z m -1.81889,-1.299213 -0.13992,-0.09994 -0.93943,-0.579649 0.17989,-0.259842 0.93943,0.55966 0.13992,0.09994 z m -1.89885,-1.159297 -0.71957,-0.419746 -0.37977,-0.199879 0.13992,-0.27983 0.39976,0.219867 0.71956,0.399757 z m -1.95882,-1.079346 -0.11992,-0.05996 -1.01939,-0.519685 0.15991,-0.27983 0.99939,0.499697 0.13992,0.07995 z m -1.99879,-0.999394 -1.09933,-0.519685 -0.04,-0.01999 0.11992,-0.299819 0.06,0.01999 1.09933,0.539673 z m -2.01877,-0.959419 -0.6596,-0.299818 -0.4997,-0.219867 0.11993,-0.27983 0.51968,0.219866 0.6596,0.299819 z m -2.03877,-0.899455 -0.25984,-0.119927 -0.91944,-0.37977 0.11993,-0.27983 0.91944,0.37977 0.25984,0.09994 z m -2.05875,-0.859479 -1.17928,-0.499697 0.11992,-0.27983 1.17929,0.479709 z m -2.07874,-0.839491 -1.17928,-0.479709 0.0999,-0.299819 1.19927,0.47971 z m -2.07874,-0.819503 -1.01938,-0.399758 -0.17989,-0.05996 0.11993,-0.299818 0.17989,0.05996 1.01938,0.399757 z m -2.09873,-0.799516 -1.19927,-0.439733 0.11993,-0.299819 1.19927,0.439734 z m -2.09872,-0.779527 -0.43974,-0.159904 -0.75954,-0.27983 0.11993,-0.299818 0.75954,0.27983 0.43973,0.159903 z m -2.09873,-0.75954 -1.19928,-0.439734 0.0999,-0.299818 1.19928,0.439734 z m -2.09873,-0.75954 -1.21926,-0.419745 0.11993,-0.299819 1.19927,0.419746 z m -2.11872,-0.739552 -1.19927,-0.419745 0.0999,-0.299818 1.19927,0.419745 z m -2.11871,-0.719563 -1.19928,-0.419746 0.0999,-0.299818 1.19928,0.399757 z m -2.11872,-0.739552 -0.4997,-0.159903 -0.69957,-0.239855 0.0999,-0.319806 0.69957,0.239854 0.51969,0.179891 z m -2.11871,-0.719564 h -0.04 l -1.1593,-0.419746 0.0999,-0.299818 1.17929,0.399758 0.02,0.01999 z m -2.11872,-0.719564 -1.05936,-0.359782 -0.13991,-0.05996 0.0999,-0.299818 0.1599,0.05996 1.03937,0.359782 z m -2.11872,-0.719564 -0.39975,-0.139915 -0.79952,-0.279831 0.0999,-0.299818 0.79952,0.259843 0.41974,0.159903 z m -2.11871,-0.739552 -0.97941,-0.359782 -0.21987,-0.07995 0.11993,-0.299819 0.21987,0.07995 0.97941,0.359782 z m -2.09873,-0.759539 -0.0799,-0.03998 -1.11932,-0.419746 v 0 l 0.11992,-0.299818 v 0 l 1.09934,0.419746 0.0999,0.03998 z m -2.09873,-0.779528 -1.11932,-0.439733 -0.0799,-0.01999 0.11993,-0.299819 0.0799,0.01999 1.11932,0.439734 z m -2.09873,-0.799515 -0.85948,-0.319807 -0.33979,-0.119927 0.11993,-0.299818 0.3198,0.119927 0.87947,0.319806 z m -2.09872,-0.75954 -0.45973,-0.179891 -0.73955,-0.259843 0.0999,-0.299818 0.75954,0.259843 0.45972,0.179891 z m -2.09873,-0.739552 -1.21926,-0.399758 0.0999,-0.299818 1.21926,0.399758 z m -2.13871,-0.699576 -0.49969,-0.139915 -0.71957,-0.219867 0.0999,-0.299818 0.71957,0.199879 0.49969,0.159903 z m -2.1387,-0.619624 -0.73955,-0.179891 -0.4997,-0.119928 0.0799,-0.299818 0.4997,0.09994 0.73955,0.199879 z m -2.17868,-0.499698 -0.69958,-0.139915 -0.53967,-0.07995 0.04,-0.319806 0.57965,0.07995 0.69957,0.159903 z m -2.19867,-0.359781 -0.51968,-0.07995 -0.73955,-0.05996 0.04,-0.319806 0.73955,0.05996 0.53968,0.07995 z m -2.21865,-0.219867 -0.35978,-0.03998 -0.89946,-0.03998 0.02,-0.319806 0.89945,0.03998 0.37977,0.03998 z m -2.21866,-0.09994 -0.35978,-0.01999 -0.91944,-0.01999 v -0.319807 l 0.91944,0.01999 0.35978,0.01999 z m -2.23864,-0.05996 -0.25984,-0.01999 -0.91945,-0.01999 h -0.0999 l 0.02,-0.319806 h 0.0999 l 0.91944,0.01999 0.25985,0.01999 z m -2.23864,-0.05996 -1.27923,0.01999 v -0.319806 l 1.27923,-0.01999 z m -2.21866,0.09994 -0.55966,0.05996 -0.67959,0.139915 -0.06,-0.319806 0.71956,-0.139915 0.55966,-0.05996 z m -2.15869,0.399758 -0.67959,0.199879 -0.53967,0.179891 -0.0999,-0.299818 0.53967,-0.179891 0.67959,-0.199879 z m -2.09873,0.719564 -0.39976,0.159903 -0.77952,0.339794 -0.11993,-0.27983 0.77953,-0.339794 0.39975,-0.159903 z m -2.03876,0.899455 -0.57965,0.27983 -0.11993,-0.299818 0.55966,-0.259842 z"
     id="path169"
     inkscape:connector-curvature="0" />
  <path
     style="fill:none;stroke:#000000;stroke-width:1.5;stroke-linecap:butt;stroke-linejoin:round;stroke-miterlimit:10;stroke-dasharray:none;stroke-opacity:1"
     clip-path="url(#clipEmfPath2)"
     d="m 100.73895,2.0787402 h 41.89461 V 29.262265 h -41.89461 z"
     id="path171"
     inkscape:connector-curvature="0"
     transform="translate(-4.4073289,0.9606299)" />
  <path
     style="fill:none;stroke:#000000;stroke-width:1;stroke-linecap:butt;stroke-linejoin:round;stroke-miterlimit:10;stroke-dasharray:none;stroke-opacity:1"
     d="m 130.64082,55.396426 -4.19745,-0.649606 1.21926,-0.889461 -11.99273,-16.410054 -1.20927,0.889461 0.64961,-4.187462 4.18746,0.649606 -1.20927,0.879467 11.99273,16.410054 1.20927,-0.879467 z"
     id="path173"
     inkscape:connector-curvature="0" />
  <g
     clip-path="url(#clipEmfPath2)"
     id="g175"
     transform="translate(-4.4073289,-1.0393701)" />
  <g
     clip-path="url(#clipEmfPath2)"
     id="g177"
     transform="translate(-4.4073289,-1.0393701)" />
  <g
     id="g1040"
     transform="rotate(-41.71041,-34.807732,183.71242)">
    <g
       id="g1079"
       transform="rotate(26.911147,-42.793134,160.24589)">
      <path
         inkscape:connector-curvature="0"
         style="fill:#4f81bd;fill-opacity:1;fill-rule:evenodd;stroke:none"
         d="m 98.411948,121.3839 c 1.069351,0.93943 0.359781,3.49788 -1.589037,5.69655 -1.948819,2.20866 -4.397335,3.22804 -5.466687,2.28861 -1.069352,-0.94942 -0.349788,-3.49788 1.599031,-5.70654 1.948819,-2.20866 4.397335,-3.22804 5.456693,-2.27862 z"
         id="path73" />
      <path
         inkscape:connector-curvature="0"
         style="fill:none;stroke:#000000;stroke-width:1.05977368px;stroke-linecap:butt;stroke-linejoin:round;stroke-miterlimit:10;stroke-dasharray:none;stroke-opacity:1"
         d="m 98.741748,121.41388 c 1.180051,1.03784 0.532265,3.71037 -1.452075,5.95016 -1.983917,2.25035 -4.551151,3.22312 -5.731203,2.18528 -1.180477,-1.0484 -0.521611,-3.70995 1.462306,-5.96029 1.983917,-2.25034 4.551151,-3.22312 5.720972,-2.17515"
         id="path75" />
      <path
         inkscape:connector-curvature="0"
         style="fill:#4f81bd;fill-opacity:1;fill-rule:evenodd;stroke:none;stroke-width:1.1094141"
         d="m 113.34458,134.3521 -7.31506,8.28574 -14.602831,-12.93821 7.315059,-8.28575 z"
         id="path77" />
      <path
         inkscape:connector-curvature="0"
         style="fill:#4f81bd;fill-opacity:1;fill-rule:evenodd;stroke:none;stroke-width:1.20914531"
         d="m 113.41924,134.26833 c 1.32225,1.15906 0.77347,3.93847 -1.22295,6.18828 -1.99581,2.26184 -4.66959,3.14547 -5.99184,1.98641 -1.31069,-1.17047 -0.76128,-3.93785 1.23452,-6.19968 1.98424,-2.25044 4.67019,-3.13345 5.98027,-1.97501 z"
         id="path79" />
      <path
         inkscape:connector-curvature="0"
         style="fill:none;stroke:#000000;stroke-width:1.01949513px;stroke-linecap:butt;stroke-linejoin:round;stroke-miterlimit:10;stroke-dasharray:none;stroke-opacity:1"
         d="M 106.44497,142.71917 91.269541,129.29526"
         id="path83" />
      <path
         inkscape:connector-curvature="0"
         style="fill:none;stroke:#000000;stroke-width:0.9993943px;stroke-linecap:butt;stroke-linejoin:round;stroke-miterlimit:10;stroke-dasharray:none;stroke-opacity:1"
         d="M 113.3429,134.32606 98.741748,121.41388"
         id="path85" />
      <path
         inkscape:connector-curvature="0"
         style="fill:none;stroke:#000000;stroke-width:1.05977368px;stroke-linecap:butt;stroke-linejoin:round;stroke-miterlimit:10;stroke-dasharray:none;stroke-opacity:1"
         d="m 113.3429,134.32606 c 1.18005,1.03784 0.53226,3.71037 -1.45208,5.95016 -1.98392,2.25035 -4.55115,3.22312 -5.7312,2.18528 -1.18048,-1.0484 -0.52161,-3.70995 1.4623,-5.96029 1.98392,-2.25034 4.55115,-3.22312 5.72098,-2.17515"
         id="path75-6" />
    </g>
  </g>
  <g
     id="g1040-1"
     transform="rotate(-41.71041,-0.31410008,107.89649)">
    <g
       id="g1079-6"
       transform="rotate(26.911147,-42.793134,160.24589)">
      <path
         inkscape:connector-curvature="0"
         style="fill:#4f81bd;fill-opacity:1;fill-rule:evenodd;stroke:none"
         d="m 98.411948,121.3839 c 1.069351,0.93943 0.359781,3.49788 -1.589037,5.69655 -1.948819,2.20866 -4.397335,3.22804 -5.466687,2.28861 -1.069352,-0.94942 -0.349788,-3.49788 1.599031,-5.70654 1.948819,-2.20866 4.397335,-3.22804 5.456693,-2.27862 z"
         id="path73-5" />
      <path
         inkscape:connector-curvature="0"
         style="fill:none;stroke:#000000;stroke-width:1.05977368px;stroke-linecap:butt;stroke-linejoin:round;stroke-miterlimit:10;stroke-dasharray:none;stroke-opacity:1"
         d="m 98.741748,121.41388 c 1.180051,1.03784 0.532265,3.71037 -1.452075,5.95016 -1.983917,2.25035 -4.551151,3.22312 -5.731203,2.18528 -1.180477,-1.0484 -0.521611,-3.70995 1.462306,-5.96029 1.983917,-2.25034 4.551151,-3.22312 5.720972,-2.17515"
         id="path75-7" />
      <path
         inkscape:connector-curvature="0"
         style="fill:#4f81bd;fill-opacity:1;fill-rule:evenodd;stroke:none;stroke-width:1.1094141"
         d="m 113.34458,134.3521 -7.31506,8.28574 -14.602831,-12.93821 7.315059,-8.28575 z"
         id="path77-6" />
      <path
         inkscape:connector-curvature="0"
         style="fill:#4f81bd;fill-opacity:1;fill-rule:evenodd;stroke:none;stroke-width:1.20914531"
         d="m 113.41924,134.26833 c 1.32225,1.15906 0.77347,3.93847 -1.22295,6.18828 -1.99581,2.26184 -4.66959,3.14547 -5.99184,1.98641 -1.31069,-1.17047 -0.76128,-3.93785 1.23452,-6.19968 1.98424,-2.25044 4.67019,-3.13345 5.98027,-1.97501 z"
         id="path79-0" />
      <path
         inkscape:connector-curvature="0"
         style="fill:none;stroke:#000000;stroke-width:1.01949513px;stroke-linecap:butt;stroke-linejoin:round;stroke-miterlimit:10;stroke-dasharray:none;stroke-opacity:1"
         d="M 106.44497,142.71917 91.269541,129.29526"
         id="path83-3" />
      <path
         inkscape:connector-curvature="0"
         style="fill:none;stroke:#000000;stroke-width:0.9993943px;stroke-linecap:butt;stroke-linejoin:round;stroke-miterlimit:10;stroke-dasharray:none;stroke-opacity:1"
         d="M 113.3429,134.32606 98.741748,121.41388"
         id="path85-9" />
      <path
         inkscape:connector-curvature="0"
         style="fill:none;stroke:#000000;stroke-width:1.05977368px;stroke-linecap:butt;stroke-linejoin:round;stroke-miterlimit:10;stroke-dasharray:none;stroke-opacity:1"
         d="m 113.3429,134.32606 c 1.18005,1.03784 0.53226,3.71037 -1.45208,5.95016 -1.98392,2.25035 -4.55115,3.22312 -5.7312,2.18528 -1.18048,-1.0484 -0.52161,-3.70995 1.4623,-5.96029 1.98392,-2.25034 4.55115,-3.22312 5.72098,-2.17515"
         id="path75-6-9" />
    </g>
  </g>
  <g
     id="g1040-6"
     transform="rotate(-41.71041,-50.068487,141.04709)">
    <g
       id="g1079-9"
       transform="rotate(26.911147,-42.793134,160.24589)">
      <path
         inkscape:connector-curvature="0"
         style="fill:#4f81bd;fill-opacity:1;fill-rule:evenodd;stroke:none"
         d="m 98.411948,121.3839 c 1.069351,0.93943 0.359781,3.49788 -1.589037,5.69655 -1.948819,2.20866 -4.397335,3.22804 -5.466687,2.28861 -1.069352,-0.94942 -0.349788,-3.49788 1.599031,-5.70654 1.948819,-2.20866 4.397335,-3.22804 5.456693,-2.27862 z"
         id="path73-6" />
      <path
         inkscape:connector-curvature="0"
         style="fill:none;stroke:#000000;stroke-width:1.05977368px;stroke-linecap:butt;stroke-linejoin:round;stroke-miterlimit:10;stroke-dasharray:none;stroke-opacity:1"
         d="m 98.741748,121.41388 c 1.180051,1.03784 0.532265,3.71037 -1.452075,5.95016 -1.983917,2.25035 -4.551151,3.22312 -5.731203,2.18528 -1.180477,-1.0484 -0.521611,-3.70995 1.462306,-5.96029 1.983917,-2.25034 4.551151,-3.22312 5.720972,-2.17515"
         id="path75-5" />
      <path
         inkscape:connector-curvature="0"
         style="fill:#4f81bd;fill-opacity:1;fill-rule:evenodd;stroke:none;stroke-width:1.1094141"
         d="m 113.34458,134.3521 -7.31506,8.28574 -14.602831,-12.93821 7.315059,-8.28575 z"
         id="path77-9" />
      <path
         inkscape:connector-curvature="0"
         style="fill:#4f81bd;fill-opacity:1;fill-rule:evenodd;stroke:none;stroke-width:1.20914531"
         d="m 113.41924,134.26833 c 1.32225,1.15906 0.77347,3.93847 -1.22295,6.18828 -1.99581,2.26184 -4.66959,3.14547 -5.99184,1.98641 -1.31069,-1.17047 -0.76128,-3.93785 1.23452,-6.19968 1.98424,-2.25044 4.67019,-3.13345 5.98027,-1.97501 z"
         id="path79-5" />
      <path
         inkscape:connector-curvature="0"
         style="fill:none;stroke:#000000;stroke-width:1.01949513px;stroke-linecap:butt;stroke-linejoin:round;stroke-miterlimit:10;stroke-dasharray:none;stroke-opacity:1"
         d="M 106.44497,142.71917 91.269541,129.29526"
         id="path83-4" />
      <path
         inkscape:connector-curvature="0"
         style="fill:none;stroke:#000000;stroke-width:0.9993943px;stroke-linecap:butt;stroke-linejoin:round;stroke-miterlimit:10;stroke-dasharray:none;stroke-opacity:1"
         d="M 113.3429,134.32606 98.741748,121.41388"
         id="path85-1" />
      <path
         inkscape:connector-curvature="0"
         style="fill:none;stroke:#000000;stroke-width:1.05977368px;stroke-linecap:butt;stroke-linejoin:round;stroke-miterlimit:10;stroke-dasharray:none;stroke-opacity:1"
         d="m 113.3429,134.32606 c 1.18005,1.03784 0.53226,3.71037 -1.45208,5.95016 -1.98392,2.25035 -4.55115,3.22312 -5.7312,2.18528 -1.18048,-1.0484 -0.52161,-3.70995 1.4623,-5.96029 1.98392,-2.25034 4.55115,-3.22312 5.72098,-2.17515"
         id="path75-6-96" />
    </g>
  </g>
  <g
     id="g1040-7"
     transform="rotate(-41.71041,-11.228417,56.192321)">
    <g
       id="g1079-60"
       transform="rotate(26.911147,-42.793134,160.24589)">
      <path
         inkscape:connector-curvature="0"
         style="fill:#4f81bd;fill-opacity:1;fill-rule:evenodd;stroke:none"
         d="m 98.411948,121.3839 c 1.069351,0.93943 0.359781,3.49788 -1.589037,5.69655 -1.948819,2.20866 -4.397335,3.22804 -5.466687,2.28861 -1.069352,-0.94942 -0.349788,-3.49788 1.599031,-5.70654 1.948819,-2.20866 4.397335,-3.22804 5.456693,-2.27862 z"
         id="path73-8" />
      <path
         inkscape:connector-curvature="0"
         style="fill:none;stroke:#000000;stroke-width:1.05977368px;stroke-linecap:butt;stroke-linejoin:round;stroke-miterlimit:10;stroke-dasharray:none;stroke-opacity:1"
         d="m 98.741748,121.41388 c 1.180051,1.03784 0.532265,3.71037 -1.452075,5.95016 -1.983917,2.25035 -4.551151,3.22312 -5.731203,2.18528 -1.180477,-1.0484 -0.521611,-3.70995 1.462306,-5.96029 1.983917,-2.25034 4.551151,-3.22312 5.720972,-2.17515"
         id="path75-60" />
      <path
         inkscape:connector-curvature="0"
         style="fill:#4f81bd;fill-opacity:1;fill-rule:evenodd;stroke:none;stroke-width:1.1094141"
         d="m 113.34458,134.3521 -7.31506,8.28574 -14.602831,-12.93821 7.315059,-8.28575 z"
         id="path77-90" />
      <path
         inkscape:connector-curvature="0"
         style="fill:#4f81bd;fill-opacity:1;fill-rule:evenodd;stroke:none;stroke-width:1.20914531"
         d="m 113.41924,134.26833 c 1.32225,1.15906 0.77347,3.93847 -1.22295,6.18828 -1.99581,2.26184 -4.66959,3.14547 -5.99184,1.98641 -1.31069,-1.17047 -0.76128,-3.93785 1.23452,-6.19968 1.98424,-2.25044 4.67019,-3.13345 5.98027,-1.97501 z"
         id="path79-8" />
      <path
         inkscape:connector-curvature="0"
         style="fill:none;stroke:#000000;stroke-width:1.01949513px;stroke-linecap:butt;stroke-linejoin:round;stroke-miterlimit:10;stroke-dasharray:none;stroke-opacity:1"
         d="M 106.44497,142.71917 91.269541,129.29526"
         id="path83-40" />
      <path
         inkscape:connector-curvature="0"
         style="fill:none;stroke:#000000;stroke-width:0.9993943px;stroke-linecap:butt;stroke-linejoin:round;stroke-miterlimit:10;stroke-dasharray:none;stroke-opacity:1"
         d="M 113.3429,134.32606 98.741748,121.41388"
         id="path85-6" />
      <path
         inkscape:connector-curvature="0"
         style="fill:none;stroke:#000000;stroke-width:1.05977368px;stroke-linecap:butt;stroke-linejoin:round;stroke-miterlimit:10;stroke-dasharray:none;stroke-opacity:1"
         d="m 113.3429,134.32606 c 1.18005,1.03784 0.53226,3.71037 -1.45208,5.95016 -1.98392,2.25035 -4.55115,3.22312 -5.7312,2.18528 -1.18048,-1.0484 -0.52161,-3.70995 1.4623,-5.96029 1.98392,-2.25034 4.55115,-3.22312 5.72098,-2.17515"
         id="path75-6-1" />
    </g>
  </g>
  <g
     id="g1290"
     transform="rotate(8.0391942,168.26659,23.389313)">
    <path
       inkscape:connector-curvature="0"
       id="path145-1"
       d="m 166.92433,65.225086 -5.63658,-6.076317"
       style="fill:none;stroke:#000000;stroke-width:2.99818301px;stroke-linecap:butt;stroke-linejoin:round;stroke-miterlimit:10;stroke-dasharray:none;stroke-opacity:1" />
    <path
       sodipodi:nodetypes="cc"
       inkscape:connector-curvature="0"
       id="path147-4"
       d="m 161.28775,59.148769 2.69836,-6.775894"
       style="fill:none;stroke:#000000;stroke-width:2.99818301px;stroke-linecap:round;stroke-linejoin:round;stroke-miterlimit:10;stroke-dasharray:none;stroke-opacity:1" />
    <path
       sodipodi:nodetypes="cc"
       inkscape:connector-curvature="0"
       id="path149-1"
       d="m 166.92433,65.225086 7.08484,-1.135271"
       style="fill:none;stroke:#000000;stroke-width:2.99818301px;stroke-linecap:round;stroke-linejoin:round;stroke-miterlimit:10;stroke-dasharray:none;stroke-opacity:1" />
    <path
       inkscape:connector-curvature="0"
       id="path151-8"
       d="m 171.78139,50.613941 -7.79528,1.758934"
       style="fill:none;stroke:#000000;stroke-width:2.99799991;stroke-linecap:round;stroke-linejoin:round;stroke-miterlimit:10;stroke-dasharray:none;stroke-opacity:1" />
    <path
       inkscape:connector-curvature="0"
       id="path153-1"
       d="m 177.62698,57.473824 -3.61781,6.615991"
       style="fill:none;stroke:#000000;stroke-width:2.99818301px;stroke-linecap:round;stroke-linejoin:round;stroke-miterlimit:10;stroke-dasharray:none;stroke-opacity:1" />
  </g>
  <text
     xml:space="preserve"
     style="font-style:normal;font-variant:normal;font-weight:normal;font-stretch:normal;font-size:22.17661095px;line-height:0;font-family:cmr10;-inkscape-font-specification:cmr10;letter-spacing:0px;word-spacing:0px;fill:#000000;fill-opacity:1;stroke:none;stroke-width:1.27941978"
     x="103.48514"
     y="22.638176"
     id="text918"><tspan
       sodipodi:role="line"
       id="tspan916"
       x="103.48514"
       y="22.638176"
       style="font-style:normal;font-variant:normal;font-weight:normal;font-stretch:normal;font-family:cmr10;-inkscape-font-specification:cmr10;stroke-width:1.27941978">A<tspan
   style="font-size:64.99999762%;baseline-shift:sub"
   id="tspan2281">C</tspan></tspan></text>
</svg>
